<svg width="22" height="21" viewBox="0 0 22 21" fill="none" xmlns="http://www.w3.org/2000/svg">
<path d="M20.68 5.25H15.84V4.8125C15.84 3.53615 15.3301 2.31207 14.4224 1.40955C13.5147 0.50703 12.2836 0 11 0C9.71635 0 8.48528 0.50703 7.5776 1.40955C6.66993 2.31207 6.16 3.53615 6.16 4.8125V5.25H1.32C0.969914 5.25 0.634167 5.38828 0.386619 5.63442C0.139071 5.88056 0 6.2144 0 6.5625V19.6875C0 20.0356 0.139071 20.3694 0.386619 20.6156C0.634167 20.8617 0.969914 21 1.32 21H20.68C21.0301 21 21.3658 20.8617 21.6134 20.6156C21.8609 20.3694 22 20.0356 22 19.6875V6.5625C22 6.2144 21.8609 5.88056 21.6134 5.63442C21.3658 5.38828 21.0301 5.25 20.68 5.25ZM7.04 4.8125C7.04 3.76821 7.45721 2.76669 8.19986 2.02827C8.9425 1.28984 9.94974 0.875 11 0.875C12.0503 0.875 13.0575 1.28984 13.8001 2.02827C14.5428 2.76669 14.96 3.76821 14.96 4.8125V5.25H7.04V4.8125ZM21.12 19.6875C21.12 19.8035 21.0736 19.9148 20.9911 19.9969C20.9086 20.0789 20.7967 20.125 20.68 20.125H1.32C1.2033 20.125 1.09139 20.0789 1.00887 19.9969C0.926357 19.9148 0.88 19.8035 0.88 19.6875V6.5625C0.88 6.44647 0.926357 6.33519 1.00887 6.25314C1.09139 6.17109 1.2033 6.125 1.32 6.125H6.16V8.3125C6.16 8.42853 6.20636 8.53981 6.28887 8.62186C6.37139 8.70391 6.4833 8.75 6.6 8.75C6.7167 8.75 6.82861 8.70391 6.91113 8.62186C6.99364 8.53981 7.04 8.42853 7.04 8.3125V6.125H14.96V8.3125C14.96 8.42853 15.0064 8.53981 15.0889 8.62186C15.1714 8.70391 15.2833 8.75 15.4 8.75C15.5167 8.75 15.6286 8.70391 15.7111 8.62186C15.7936 8.53981 15.84 8.42853 15.84 8.3125V6.125H20.68C20.7967 6.125 20.9086 6.17109 20.9911 6.25314C21.0736 6.33519 21.12 6.44647 21.12 6.5625V19.6875Z" fill="black"/>
</svg>
