<svg width="46" height="33" viewBox="0 0 46 33" fill="none" xmlns="http://www.w3.org/2000/svg">
<path d="M3.28571 0H19.7143C20.5857 0 21.4214 0.347678 22.0376 0.966548C22.6538 1.58542 23 2.42479 23 3.3C23 4.17521 22.6538 5.01458 22.0376 5.63345C21.4214 6.25232 20.5857 6.6 19.7143 6.6H3.28571C2.41429 6.6 1.57855 6.25232 0.962363 5.63345C0.346173 5.01458 0 4.17521 0 3.3C0 2.42479 0.346173 1.58542 0.962363 0.966548C1.57855 0.347678 2.41429 0 3.28571 0ZM26.2857 26.4H42.7143C43.5857 26.4 44.4214 26.7477 45.0376 27.3665C45.6538 27.9854 46 28.8248 46 29.7C46 30.5752 45.6538 31.4146 45.0376 32.0335C44.4214 32.6523 43.5857 33 42.7143 33H26.2857C25.4143 33 24.5786 32.6523 23.9624 32.0335C23.3462 31.4146 23 30.5752 23 29.7C23 28.8248 23.3462 27.9854 23.9624 27.3665C24.5786 26.7477 25.4143 26.4 26.2857 26.4ZM3.28571 13.2H42.7143C43.5857 13.2 44.4214 13.5477 45.0376 14.1665C45.6538 14.7854 46 15.6248 46 16.5C46 17.3752 45.6538 18.2146 45.0376 18.8335C44.4214 19.4523 43.5857 19.8 42.7143 19.8H3.28571C2.41429 19.8 1.57855 19.4523 0.962363 18.8335C0.346173 18.2146 0 17.3752 0 16.5C0 15.6248 0.346173 14.7854 0.962363 14.1665C1.57855 13.5477 2.41429 13.2 3.28571 13.2Z" fill="white"/>
</svg>
