<svg width="22" height="14" viewBox="0 0 22 14" fill="none" xmlns="http://www.w3.org/2000/svg">
<path d="M11.6854 0.807024L21.7386 11.8388C21.9064 12.0229 22 12.2675 22 12.5218C22 12.7761 21.9064 13.0206 21.7386 13.2047L21.7272 13.2166C21.6458 13.3061 21.5479 13.3774 21.4394 13.4262C21.3308 13.4749 21.2139 13.5 21.0958 13.5C20.9777 13.5 20.8608 13.4749 20.7522 13.4262C20.6437 13.3774 20.5457 13.3061 20.4644 13.2166L10.9981 2.82811L1.53562 13.2166C1.45426 13.3061 1.35632 13.3774 1.24778 13.4262C1.13923 13.4749 1.02234 13.5 0.904214 13.5C0.786088 13.5 0.669196 13.4749 0.560649 13.4262C0.452104 13.3774 0.354173 13.3061 0.272813 13.2166L0.261453 13.2047C0.0936252 13.0206 1.07321e-06 12.7761 1.05098e-06 12.5218C1.02874e-06 12.2675 0.0936251 12.0229 0.261453 11.8388L10.3146 0.807024C10.4031 0.710004 10.5094 0.632765 10.6272 0.579989C10.745 0.527214 10.8718 0.500001 11 0.500001C11.1282 0.500001 11.255 0.527214 11.3728 0.579989C11.4906 0.632765 11.597 0.710003 11.6854 0.807024Z" fill="black"/>
</svg>
