<svg width="24" height="21" viewBox="0 0 24 21" fill="none" xmlns="http://www.w3.org/2000/svg">
<path d="M17.5556 0C15.1733 0 13.12 1.16299 12 3.08951C10.88 1.16299 8.82667 0 6.44444 0C4.7359 0.00211424 3.09793 0.700209 1.88981 1.94116C0.681686 3.18211 0.00205831 4.86459 0 6.61956C0 9.88255 2 13.2928 5.93333 16.7532C7.74945 18.3406 9.71038 19.7445 11.7889 20.9452C11.8537 20.9812 11.9263 21 12 21C12.0737 21 12.1463 20.9812 12.2111 20.9452C14.2896 19.7445 16.2506 18.3406 18.0667 16.7532C22 13.2928 24 9.88255 24 6.61956C23.9979 4.86459 23.3183 3.18211 22.1102 1.94116C20.9021 0.700209 19.2641 0.00211424 17.5556 0ZM12 20.0208C10.4444 19.1123 0.888889 13.2471 0.888889 6.61956C0.890653 5.10666 1.47654 3.65623 2.51802 2.58645C3.55951 1.51666 4.97156 0.914855 6.44444 0.913043C8.79 0.913043 10.7611 2.20386 11.5889 4.28103C11.6224 4.36476 11.6793 4.43638 11.7525 4.48678C11.8257 4.53718 11.9119 4.56409 12 4.56409C12.0881 4.56409 12.1743 4.53718 12.2475 4.48678C12.3207 4.43638 12.3776 4.36476 12.4111 4.28103C13.2389 2.20386 15.21 0.913043 17.5556 0.913043C19.0284 0.914855 20.4405 1.51666 21.482 2.58645C22.5235 3.65623 23.1093 5.10666 23.1111 6.61956C23.1111 13.2391 13.5556 19.1123 12 20.0208Z" fill="black"/>
</svg>
