<svg width="57" height="42" viewBox="0 0 57 42" fill="none" xmlns="http://www.w3.org/2000/svg">
<path d="M17.471 -3.54531e-05L53.8926 -3.86372e-05C54.6325 0.000376345 55.3419 0.294451 55.865 0.817583C56.3881 1.34072 56.6822 2.05011 56.6826 2.78994L56.6826 39.21C56.6826 40.7483 55.431 42 53.8926 42L17.4726 42C15.9342 42 14.6826 40.7499 14.6826 39.21L14.6826 30.3983C14.6826 30.2068 14.7587 30.0231 14.8941 29.8877C15.0295 29.7523 15.2132 29.6762 15.4047 29.6762C15.5963 29.6762 15.78 29.7523 15.9154 29.8877C16.0508 30.0231 16.1269 30.2068 16.1269 30.3983L16.1269 39.21C16.1277 39.5662 16.2696 39.9076 16.5215 40.1595C16.7734 40.4114 17.1148 40.5533 17.471 40.5541L53.8926 40.5541C54.2489 40.5533 54.5902 40.4114 54.8421 40.1595C55.094 39.9076 55.2359 39.5662 55.2367 39.21L55.2367 2.78837C55.2359 2.43215 55.094 2.09076 54.8421 1.83888C54.5902 1.587 54.2489 1.44512 53.8926 1.44429L17.4726 1.44429C17.1163 1.44512 16.7749 1.587 16.5231 1.83888C16.2712 2.09077 16.1293 2.43216 16.1285 2.78837L16.1285 11.5108C16.1285 11.7023 16.0524 11.886 15.917 12.0214C15.7815 12.1569 15.5978 12.2329 15.4063 12.2329C15.2148 12.2329 15.0311 12.1569 14.8957 12.0214C14.7602 11.886 14.6841 11.7023 14.6841 11.5108L14.6841 2.78837C14.6841 2.04911 14.9777 1.34011 15.5003 0.817222C16.0229 0.294339 16.7317 0.000379927 17.471 -3.54531e-05Z" fill="black"/>
<path d="M36.8728 21.7002L1.91113 21.7002C1.7196 21.7002 1.53591 21.6241 1.40048 21.4887C1.26505 21.3532 1.18897 21.1696 1.18896 20.978C1.18896 20.7865 1.26505 20.6028 1.40048 20.4674C1.53591 20.3319 1.7196 20.2559 1.91113 20.2559L36.8728 20.2559C37.0643 20.2559 37.248 20.3319 37.3834 20.4674C37.5189 20.6028 37.595 20.7865 37.595 20.978C37.595 21.1696 37.5189 21.3532 37.3834 21.4887C37.248 21.6241 37.0643 21.7002 36.8728 21.7002Z" fill="black"/>
<path d="M11.0527 10.1192C10.9338 10.0413 10.7945 10.0003 10.6523 10.0014C10.5552 10.0013 10.4591 10.0208 10.3697 10.0587C10.2803 10.0967 10.1995 10.1523 10.1322 10.2223L0.202012 20.519C0.0720624 20.6536 -0.000435896 20.8335 -0.000143069 21.0206C0.000148805 21.2077 0.0732079 21.3874 0.203578 21.5216L10.093 31.7745C10.1589 31.8429 10.2375 31.8976 10.3245 31.9356C10.4115 31.9736 10.5051 31.9941 10.6001 31.996C10.7918 31.9996 10.9771 31.927 11.1152 31.7941C11.1836 31.7282 11.2384 31.6496 11.2764 31.5626C11.3144 31.4756 11.3349 31.3819 11.3367 31.287C11.3385 31.1921 11.3216 31.0978 11.287 31.0094C11.2523 30.921 11.2006 30.8403 11.1348 30.7719L1.7278 21.0203L11.1739 11.2248C11.2732 11.123 11.34 10.9941 11.3662 10.8543C11.3923 10.7145 11.3764 10.5701 11.3207 10.4393C11.2649 10.3085 11.1717 10.1971 11.0527 10.1192Z" fill="black"/>
</svg>
