<svg width="57" height="42" viewBox="0 0 57 42" fill="none" xmlns="http://www.w3.org/2000/svg">
<path d="M17.4715 -3.4719e-05L53.8931 -3.79031e-05C54.6329 0.000377834 55.3423 0.294453 55.8655 0.817585C56.3886 1.34072 56.6827 2.05011 56.6831 2.78994L56.6831 39.21C56.6831 40.7483 55.4315 42 53.8931 42L17.473 42C15.9347 42 14.6831 40.7499 14.6831 39.21L14.6831 30.3983C14.6831 30.2068 14.7592 30.0231 14.8946 29.8877C15.03 29.7523 15.2137 29.6762 15.4052 29.6762C15.5968 29.6762 15.7804 29.7523 15.9159 29.8877C16.0513 30.0231 16.1274 30.2068 16.1274 30.3983L16.1274 39.21C16.1282 39.5662 16.2701 39.9076 16.522 40.1595C16.7739 40.4114 17.1153 40.5533 17.4715 40.5541L53.8931 40.5541C54.2493 40.5533 54.5907 40.4114 54.8426 40.1595C55.0945 39.9076 55.2364 39.5662 55.2372 39.21L55.2372 2.78837C55.2364 2.43215 55.0945 2.09076 54.8426 1.83888C54.5907 1.58699 54.2493 1.44512 53.8931 1.44429L17.473 1.44429C17.1168 1.44512 16.7754 1.587 16.5235 1.83888C16.2717 2.09077 16.1298 2.43216 16.129 2.78837L16.129 11.5108C16.129 11.7023 16.0529 11.886 15.9174 12.0214C15.782 12.1569 15.5983 12.2329 15.4068 12.2329C15.2153 12.2329 15.0316 12.1569 14.8961 12.0214C14.7607 11.886 14.6846 11.7023 14.6846 11.5108L14.6846 2.78837C14.6846 2.04911 14.9782 1.34011 15.5008 0.817222C16.0234 0.294338 16.7322 0.000381148 17.4715 -3.4719e-05Z" fill="white"/>
<path d="M0.722187 20.2991L35.6838 20.2991C35.8754 20.2991 36.0591 20.3752 36.1945 20.5106C36.3299 20.646 36.406 20.8297 36.406 21.0212C36.406 21.2128 36.3299 21.3965 36.1945 21.5319C36.0591 21.6673 35.8754 21.7434 35.6838 21.7434L0.722187 21.7434C0.530655 21.7434 0.34697 21.6673 0.211536 21.5319C0.0761032 21.3965 1.52124e-05 21.2128 1.51957e-05 21.0212C1.51789e-05 20.8297 0.0761031 20.646 0.211536 20.5106C0.346969 20.3752 0.530655 20.2991 0.722187 20.2991Z" fill="white"/>
<path d="M26.5422 31.8792C26.6612 31.9571 26.8005 31.9981 26.9427 31.997C27.0398 31.9972 27.1359 31.9777 27.2253 31.9397C27.3147 31.9017 27.3954 31.8461 27.4628 31.7762L37.393 21.4794C37.5229 21.3448 37.5954 21.1649 37.5951 20.9778C37.5948 20.7907 37.5218 20.611 37.3914 20.4768L27.5019 10.2239C27.4361 10.1555 27.3574 10.1008 27.2705 10.0628C27.1835 10.0248 27.0898 10.0043 26.9949 10.0025C26.8032 9.99878 26.6179 10.0714 26.4798 10.2044C26.4114 10.2702 26.3566 10.3488 26.3186 10.4358C26.2806 10.5228 26.2601 10.6165 26.2583 10.7114C26.2565 10.8063 26.2734 10.9006 26.308 10.989C26.3427 11.0774 26.3944 11.1581 26.4602 11.2265L35.8672 20.9781L26.421 30.7736C26.3218 30.8754 26.2549 31.0044 26.2288 31.1441C26.2027 31.2839 26.2185 31.4283 26.2743 31.5591C26.3301 31.6899 26.4233 31.8013 26.5422 31.8792Z" fill="white"/>
</svg>
