<svg width="29" height="23" viewBox="0 0 29 23" fill="none" xmlns="http://www.w3.org/2000/svg">
<path d="M8.8145 0.892072L27.1892 0.892071C27.5624 0.892281 27.9203 1.04064 28.1842 1.30456C28.4482 1.56848 28.5965 1.92637 28.5967 2.29961L28.5967 20.6735C28.5967 21.4496 27.9653 22.0811 27.1892 22.0811L8.8153 22.0811C8.03922 22.0811 7.40776 21.4504 7.40776 20.6735L7.40776 16.228C7.40776 16.1314 7.44614 16.0387 7.51447 15.9704C7.58279 15.9021 7.67546 15.8637 7.77209 15.8637C7.86871 15.8637 7.96139 15.9021 8.02971 15.9704C8.09804 16.0387 8.13642 16.1314 8.13642 16.228L8.13642 20.6735C8.13684 20.8532 8.20841 21.0255 8.33549 21.1525C8.46256 21.2796 8.6348 21.3512 8.81451 21.3516L27.1892 21.3516C27.3689 21.3512 27.5411 21.2796 27.6682 21.1525C27.7953 21.0255 27.8669 20.8532 27.8673 20.6735L27.8673 2.29882C27.8669 2.11911 27.7953 1.94688 27.6682 1.8198C27.5411 1.69273 27.3689 1.62115 27.1892 1.62073L8.8153 1.62073C8.63559 1.62115 8.46335 1.69273 8.33628 1.81981C8.2092 1.94688 8.13763 2.11911 8.13721 2.29882L8.13721 6.69927C8.13721 6.79589 8.09883 6.88856 8.0305 6.95689C7.96217 7.02521 7.86951 7.0636 7.77288 7.0636C7.67625 7.0636 7.58358 7.02521 7.51526 6.95689C7.44693 6.88856 7.40855 6.79589 7.40855 6.69927L7.40854 2.29882C7.40854 1.92587 7.55665 1.56817 7.82029 1.30438C8.08394 1.04058 8.44155 0.892282 8.8145 0.892072Z" fill="black"/>
<path d="M0.364487 11.1329L18.0026 11.1329C18.0992 11.1329 18.1919 11.1713 18.2602 11.2396C18.3286 11.3079 18.3669 11.4006 18.3669 11.4972C18.3669 11.5939 18.3286 11.6865 18.2602 11.7549C18.1919 11.8232 18.0992 11.8616 18.0026 11.8616L0.364487 11.8616C0.26786 11.8616 0.17519 11.8232 0.106863 11.7549C0.038538 11.6865 0.000152564 11.5939 0.000152556 11.4972C0.000152548 11.4006 0.0385379 11.3079 0.106863 11.2396C0.17519 11.1713 0.26786 11.1329 0.364487 11.1329Z" fill="black"/>
<path d="M13.3906 16.9751C13.4506 17.0144 13.5209 17.0351 13.5927 17.0345C13.6416 17.0346 13.6901 17.0248 13.7352 17.0056C13.7803 16.9865 13.8211 16.9584 13.855 16.9231L18.8648 11.7284C18.9304 11.6605 18.9669 11.5697 18.9668 11.4754C18.9666 11.381 18.9298 11.2903 18.864 11.2226L13.8748 6.05004C13.8416 6.01553 13.8019 5.9879 13.758 5.96873C13.7141 5.94956 13.6669 5.93922 13.619 5.9383C13.5223 5.93645 13.4288 5.97309 13.3591 6.04016C13.3246 6.07337 13.297 6.11305 13.2778 6.15694C13.2586 6.20083 13.2483 6.24807 13.2474 6.29595C13.2465 6.34384 13.255 6.39143 13.2725 6.43603C13.2899 6.48062 13.316 6.52133 13.3492 6.55584L18.095 11.4755L13.3295 16.4173C13.2794 16.4687 13.2457 16.5337 13.2325 16.6043C13.2193 16.6748 13.2273 16.7476 13.2554 16.8136C13.2836 16.8796 13.3306 16.9358 13.3906 16.9751Z" fill="black"/>
</svg>
