<svg width="20" height="21" viewBox="0 0 20 21" fill="none" xmlns="http://www.w3.org/2000/svg">
<path d="M10 0.89209C15.523 0.89209 20 5.36909 20 10.8921C20 16.4151 15.523 20.8921 10 20.8921C8.23279 20.8949 6.49667 20.4273 4.97001 19.5371L0.00401407 20.8921L1.35601 15.9241C0.465107 14.397 -0.00293838 12.6601 1.38802e-05 10.8921C1.38802e-05 5.36909 4.47701 0.89209 10 0.89209ZM6.59201 6.19209L6.39201 6.20009C6.26254 6.20797 6.13599 6.24199 6.02001 6.30009C5.91153 6.36152 5.81251 6.43831 5.72601 6.52809C5.60601 6.64109 5.53801 6.73909 5.46501 6.83409C5.09514 7.31499 4.89599 7.9054 4.89901 8.51209C4.90101 9.00209 5.02901 9.47909 5.22901 9.92509C5.63801 10.8271 6.31101 11.7821 7.19901 12.6671C7.41301 12.8801 7.62301 13.0941 7.84901 13.2931C8.9524 14.2646 10.2673 14.9651 11.689 15.3391L12.257 15.4261C12.442 15.4361 12.627 15.4221 12.813 15.4131C13.1043 15.3981 13.3886 15.3192 13.646 15.1821C13.777 15.1146 13.9048 15.0412 14.029 14.9621C14.029 14.9621 14.072 14.9341 14.154 14.8721C14.289 14.7721 14.372 14.7011 14.484 14.5841C14.567 14.4981 14.639 14.3971 14.694 14.2821C14.772 14.1191 14.85 13.8081 14.882 13.5491C14.906 13.3511 14.899 13.2431 14.896 13.1761C14.892 13.0691 14.803 12.9581 14.706 12.9111L14.124 12.6501C14.124 12.6501 13.254 12.2711 12.722 12.0291C12.6663 12.0048 12.6067 11.9909 12.546 11.9881C12.4776 11.9811 12.4085 11.9888 12.3433 12.0107C12.2781 12.0326 12.2183 12.0682 12.168 12.1151C12.163 12.1131 12.096 12.1701 11.373 13.0461C11.3315 13.1019 11.2744 13.144 11.2088 13.1671C11.1433 13.1903 11.0723 13.1934 11.005 13.1761C10.9399 13.1586 10.876 13.1366 10.814 13.1101C10.69 13.0581 10.647 13.0381 10.562 13.0021C9.98808 12.7516 9.4567 12.4132 8.98701 11.9991C8.86101 11.8891 8.74401 11.7691 8.62401 11.6531C8.2306 11.2763 7.88774 10.8501 7.60401 10.3851L7.54501 10.2901C7.50264 10.2263 7.46837 10.1574 7.44301 10.0851C7.40501 9.93809 7.50401 9.82009 7.50401 9.82009C7.50401 9.82009 7.74701 9.55409 7.86001 9.41009C7.97001 9.27009 8.06301 9.13409 8.12301 9.03709C8.24101 8.84709 8.27801 8.65209 8.21601 8.50109C7.93601 7.81709 7.64601 7.13609 7.34801 6.46009C7.28901 6.32609 7.11401 6.23009 6.95501 6.21109C6.90101 6.20509 6.84701 6.19909 6.79301 6.19509C6.65872 6.18842 6.52415 6.18975 6.39001 6.19909L6.59101 6.19109L6.59201 6.19209Z" fill="black"/>
</svg>
