<svg width="229" height="231" viewBox="0 0 229 231" fill="none" xmlns="http://www.w3.org/2000/svg">
<path d="M15.0861 146.541C15.592 146.378 15.7561 146.036 15.592 145.518C15.5236 145.326 15.4143 145.122 15.2502 144.89L16.0843 144.616C16.3167 144.903 16.4808 145.19 16.5765 145.49C16.8773 146.405 16.6038 147.047 15.7424 147.429C17.014 148.002 17.8891 149.026 18.3814 150.501C18.6549 151.334 18.6685 152.112 18.4224 152.849C18.1763 153.586 17.643 154.091 16.8089 154.364C15.8245 154.692 14.9767 154.555 14.2794 153.955C13.582 153.354 13.0624 152.535 12.7069 151.47C12.4061 150.542 12.2284 149.6 12.1873 148.63L11.613 148.821C10.8473 149.081 10.3141 149.518 10.0133 150.146C9.71245 150.774 9.71245 151.538 10.0133 152.412C10.3824 153.518 10.9294 154.487 11.6541 155.306L10.6422 155.634C9.9449 154.733 9.41164 153.723 9.04245 152.603C8.6596 151.456 8.67327 150.446 9.08347 149.6C9.49367 148.753 10.2731 148.139 11.4216 147.757L15.1271 146.528L15.0861 146.541ZM16.3851 153.327C16.9457 153.136 17.3149 152.794 17.4653 152.276C17.6157 151.757 17.602 151.197 17.3969 150.596C17.1781 149.941 16.8226 149.354 16.3304 148.862C15.8381 148.371 15.2638 148.016 14.5939 147.811L13.0077 148.33C13.0624 149.327 13.2265 150.228 13.5 151.02C13.7734 151.839 14.1563 152.48 14.6485 152.944C15.1408 153.409 15.7151 153.532 16.3851 153.313L16.3851 153.327Z" fill="black"/>
<path d="M0.646841 138.432L0.455414 137.367L14.1015 134.896L14.2929 135.961L0.646841 138.432Z" fill="black"/>
<path d="M0.769981 124.902L0.428146 123.851L3.61405 123.673L3.40895 119.864L4.42078 119.81L4.62589 123.619L9.90382 123.332C10.6148 123.291 11.1208 123.1 11.4079 122.731C11.7087 122.377 11.8318 121.83 11.7907 121.12C11.7497 120.438 11.5856 119.783 11.2712 119.155L12.2556 119.1C12.5838 119.755 12.7752 120.506 12.8163 121.353C12.8709 122.254 12.6658 122.964 12.2146 123.51C11.7634 124.042 11.0661 124.342 10.1499 124.397L4.68058 124.697L4.77629 126.404L3.76446 126.459L3.66875 124.752L0.769981 124.902Z" fill="black"/>
<path d="M0.797338 108.587L0.605911 107.509L3.79182 107.782L4.11998 103.986L5.11813 104.068L4.78997 107.864L10.0542 108.328C10.7652 108.396 11.2848 108.26 11.6267 107.946C11.9685 107.632 12.1736 107.113 12.242 106.403C12.2967 105.72 12.2146 105.051 11.9959 104.382L12.9803 104.464C13.2128 105.161 13.2948 105.925 13.2128 106.772C13.1308 107.673 12.8299 108.342 12.3103 108.819C11.7908 109.297 11.0661 109.488 10.1363 109.407L4.68058 108.929L4.53018 110.635L3.53202 110.553L3.68243 108.847L0.783667 108.587L0.797338 108.587Z" fill="black"/>
<path d="M8.11244 93.1874C7.51081 92.6959 7.07326 92.0542 6.81346 91.2351C6.55367 90.4159 6.54 89.5968 6.77244 88.7503L7.82529 88.9961C7.53815 89.9108 7.5655 90.7709 7.90733 91.5628C8.24917 92.3546 8.79611 92.969 9.54814 93.3922L14.9765 94.6346L14.7304 95.6858L5.84265 93.6516L6.06143 92.7096L8.11244 93.1737L8.11244 93.1874Z" fill="black"/>
<path d="M12.5563 72.4769L12.9528 71.4666L21.4167 74.8524L21.0475 75.7671L19.5297 75.1664C19.8579 75.6852 20.0767 76.2859 20.1861 76.9958C20.2954 77.7058 20.2134 78.4157 19.9263 79.1256C19.5161 80.1632 18.8734 80.8595 17.9983 81.2418C17.1232 81.6104 16.1661 81.5967 15.1132 81.1735L9.88998 79.0847L10.2865 78.0744L15.3867 80.1086C16.2481 80.4499 16.9865 80.4909 17.6155 80.2315C18.2444 79.9721 18.723 79.4396 19.0375 78.6478C19.311 77.9652 19.3656 77.2962 19.2016 76.6136C19.0375 75.9446 18.7504 75.3302 18.3401 74.7841L12.529 72.4632L12.5563 72.4769Z" fill="black"/>
<path d="M26.6402 64.9132L26.0932 65.8552L18.2037 61.2953L18.7506 60.3533L26.6402 64.9132ZM16.4261 58.8105C16.6176 58.9198 16.7406 59.0699 16.7816 59.2611C16.8227 59.4386 16.7816 59.6297 16.6859 59.7935C16.5765 59.9847 16.4398 60.1075 16.2621 60.1621C16.0843 60.2304 15.8929 60.1894 15.6878 60.0666C15.4963 59.9573 15.387 59.8072 15.3459 59.616C15.3049 59.4249 15.3459 59.2474 15.4416 59.0699C15.551 58.8925 15.6878 58.7832 15.8655 58.7286C16.0433 58.674 16.2347 58.7013 16.4261 58.8105Z" fill="black"/>
<path d="M26.4624 52.6122C25.7924 52.107 25.5053 51.4654 25.5873 50.6872C25.6694 49.909 25.9838 49.1717 26.5445 48.4482C27.2691 47.5061 28.1306 46.8235 29.1014 46.4139L29.9081 47.042C28.9373 47.3969 28.0759 48.0386 27.3512 48.9806C26.9547 49.4857 26.7222 50.0045 26.6265 50.5097C26.5445 51.0148 26.7085 51.4381 27.1051 51.7384C27.4469 51.9978 27.8571 52.0524 28.322 51.9022C28.7869 51.7521 29.2791 51.479 29.7714 51.1104C30.2636 50.7418 30.7559 50.3732 31.2618 50.0182C31.7677 49.6632 32.301 49.4448 32.8616 49.3629C33.4222 49.281 33.9418 49.4175 34.434 49.7861C35.104 50.3049 35.3911 50.9602 35.2818 51.7384C35.186 52.5166 34.8169 53.3221 34.1742 54.1412C33.2854 55.2881 32.342 56.0253 31.3165 56.3802L30.4687 55.7249C31.5626 55.3563 32.5334 54.6464 33.3538 53.5815C34.4067 52.2162 34.5571 51.2469 33.7914 50.6599C33.4495 50.4005 33.0393 50.3458 32.5744 50.5097C32.1095 50.6735 31.631 50.9329 31.1387 51.3152C30.6465 51.6974 30.1542 52.0524 29.6346 52.4074C29.1287 52.7623 28.5818 52.9671 28.0212 53.049C27.4469 53.131 26.9273 52.9808 26.4487 52.6122L26.4624 52.6122Z" fill="black"/>
<path d="M34.5707 35.2872L35.145 34.3452L37.3601 36.6388L40.1084 33.9902L40.8058 34.7138L38.0574 37.3624L41.7219 41.1578C42.2141 41.6629 42.6927 41.9223 43.1576 41.9087C43.6225 41.9087 44.1147 41.6493 44.6343 41.1441C45.1266 40.6663 45.5094 40.1065 45.7829 39.4649L46.4666 40.1748C46.1794 40.8438 45.7419 41.4854 45.1266 42.0725C44.4839 42.7005 43.8002 43.0145 43.1029 43.0145C42.4056 43.0145 41.7219 42.7005 41.0792 42.0315L37.278 38.0996L36.0474 39.2874L35.3501 38.5638L36.5807 37.376L34.5707 35.2872Z" fill="black"/>
<path d="M65.0621 27.1779L64.1323 27.6967L60.1671 20.6247L58.7177 21.4301L58.2254 20.5564L59.6748 19.7509L59.0458 18.6314C58.5126 17.6757 58.3895 16.8566 58.663 16.133C58.9364 15.423 59.456 14.8496 60.2217 14.4264C60.9464 14.0168 61.6711 13.7711 62.3821 13.7028L62.8744 14.5766C62.2181 14.6039 61.5754 14.8087 60.9191 15.1637C59.6064 15.9009 59.292 16.8839 59.9893 18.1399L60.6046 19.2321L63.8179 17.43L64.3101 18.3037L61.0968 20.1059L65.0621 27.1779Z" fill="black"/>
<path d="M82.2773 17.6755C82.4687 18.1807 82.8105 18.3308 83.3164 18.1397C83.5079 18.0714 83.713 17.9486 83.9317 17.7711L84.2326 18.5902C83.9591 18.8223 83.6719 18.9998 83.3711 19.109C82.4687 19.4503 81.8124 19.1909 81.4022 18.3445C80.8689 19.6415 79.8844 20.5562 78.435 21.0886C77.6146 21.389 76.8352 21.4436 76.0969 21.2252C75.3585 21.0067 74.8252 20.4879 74.5244 19.6688C74.1552 18.6995 74.2646 17.853 74.8389 17.1294C75.4132 16.4058 76.2199 15.8597 77.2591 15.4638C78.1752 15.1225 79.1187 14.9177 80.0895 14.8358L79.8844 14.2624C79.5973 13.5115 79.1324 12.9927 78.4897 12.7197C77.8471 12.4466 77.095 12.4739 76.2199 12.7879C75.1261 13.1975 74.1826 13.7709 73.3759 14.5355L73.0067 13.5388C73.8818 12.8016 74.8799 12.2418 75.9738 11.8186C77.1087 11.3954 78.1205 11.3681 78.982 11.7503C79.8434 12.1326 80.486 12.8835 80.9099 14.003L82.2773 17.6482L82.2773 17.6755ZM75.5363 19.2319C75.7414 19.7916 76.1105 20.133 76.6301 20.2695C77.1497 20.406 77.7103 20.3651 78.312 20.1466C78.9683 19.9009 79.5289 19.5323 80.0075 19.0271C80.486 18.522 80.8142 17.9349 80.992 17.2523L80.404 15.6823C79.4195 15.7778 78.5171 15.9826 77.724 16.2693C76.9173 16.5697 76.2883 16.9793 75.8508 17.4844C75.4132 17.9895 75.3038 18.5766 75.5499 19.2319L75.5363 19.2319Z" fill="black"/>
<path d="M90.864 9.88008C90.6999 9.06093 90.905 8.39195 91.4656 7.8595C92.0263 7.32705 92.7646 6.97209 93.6534 6.79461C94.8293 6.56252 95.9095 6.61715 96.9213 6.94481L97.1264 7.95508C96.1556 7.57281 95.0891 7.50454 93.9269 7.73663C93.2979 7.8595 92.7783 8.0916 92.3818 8.41926C91.9852 8.74692 91.8348 9.17015 91.9305 9.66164C92.0126 10.0849 92.286 10.3852 92.7373 10.59C93.1885 10.7811 93.7354 10.904 94.3507 10.945C94.966 10.9859 95.5813 11.0405 96.1966 11.0951C96.812 11.1634 97.3589 11.3409 97.8375 11.6549C98.316 11.9552 98.6168 12.4058 98.7399 13.0065C98.904 13.8393 98.6852 14.5219 98.0973 15.0407C97.5093 15.5595 96.7026 15.9281 95.6771 16.1329C94.255 16.4196 93.0518 16.3514 92.0536 15.9418L91.8485 14.9042C92.915 15.3547 94.1183 15.4503 95.4309 15.1773C97.1264 14.8496 97.8785 14.2079 97.687 13.2659C97.605 12.8427 97.3315 12.5423 96.8803 12.3512C96.4154 12.16 95.8822 12.0508 95.2669 12.0099C94.6516 11.9689 94.0362 11.9143 93.4209 11.846C92.8056 11.7778 92.2587 11.5866 91.7801 11.2726C91.3016 10.9586 91.0008 10.5081 90.8777 9.90737L90.864 9.88008Z" fill="black"/>
<path d="M107.969 0.855521L109.05 0.828231L109.227 6.52134C109.583 6.0435 110.048 5.62025 110.636 5.26529C111.224 4.91032 111.866 4.71921 112.591 4.69191C113.671 4.6646 114.56 4.96495 115.285 5.62027C115.996 6.27559 116.379 7.163 116.42 8.26885L116.597 13.88L115.517 13.9073L115.339 8.43267C115.312 7.51796 115.039 6.82165 114.519 6.35747C113.999 5.89329 113.329 5.66119 112.523 5.67485C111.798 5.70215 111.169 5.92062 110.608 6.34385C110.062 6.76707 109.61 7.27221 109.282 7.87292L109.474 14.1121L108.393 14.1394L107.969 0.869187L107.969 0.855521Z" fill="black"/>
<path d="M127.728 14.6445L126.647 14.5217L127.659 5.47006L128.739 5.59293L127.728 14.6445ZM129.218 2.86243C129.191 3.09452 129.109 3.25839 128.945 3.36761C128.794 3.47683 128.616 3.51775 128.411 3.5041C128.192 3.47679 128.028 3.3949 127.905 3.27203C127.782 3.13551 127.728 2.94437 127.755 2.71227C127.782 2.49383 127.864 2.32998 128.028 2.22076C128.192 2.11154 128.37 2.05697 128.575 2.08427C128.78 2.11158 128.945 2.19349 129.068 2.34367C129.191 2.49385 129.245 2.67132 129.218 2.88976L129.218 2.86243Z" fill="black"/>
<path d="M138.789 15.3956C138.092 14.3307 137.928 13.0883 138.297 11.6684C138.666 10.2486 139.418 9.23829 140.553 8.65124C141.674 8.06418 142.878 7.92764 144.136 8.2553C145.407 8.58296 146.392 9.27924 147.089 10.3441C147.786 11.409 147.95 12.6514 147.581 14.0713C147.212 15.4911 146.46 16.5014 145.325 17.0885C144.19 17.6755 143.001 17.7984 141.715 17.4707C140.457 17.1431 139.473 16.4468 138.776 15.3819L138.789 15.3956ZM144.819 16.1874C145.681 15.7232 146.241 14.9314 146.542 13.8119C146.829 12.6924 146.72 11.723 146.2 10.9039C145.681 10.0711 144.915 9.52497 143.903 9.26557C142.891 9.00618 141.948 9.10175 141.086 9.56593C140.225 10.0301 139.651 10.822 139.364 11.9415C139.076 13.061 139.186 14.0303 139.719 14.8631C140.239 15.6959 141.018 16.242 142.03 16.5014C143.042 16.7608 143.985 16.6652 144.847 16.1874L144.819 16.1874Z" fill="black"/>
<path d="M159.299 15.341C159.833 15.0406 160.448 14.8631 161.173 14.7812C161.897 14.713 162.595 14.8358 163.278 15.1498C164.263 15.6004 164.919 16.283 165.261 17.1841C165.603 18.0851 165.548 19.0545 165.083 20.0647L162.731 25.1708L161.747 24.7202L164.044 19.7371C164.427 18.9043 164.495 18.1671 164.236 17.5117C163.989 16.8564 163.483 16.3513 162.745 16.0099C162.089 15.7096 161.419 15.6277 160.735 15.7505C160.051 15.8871 159.436 16.1328 158.862 16.5151L156.237 22.1809L155.252 21.7303L159.081 13.4569L159.956 13.8665L159.272 15.341L159.299 15.341Z" fill="black"/>
<path d="M185.32 33.3078C185.279 32.9938 185.375 32.6934 185.621 32.4204C185.853 32.1337 186.14 31.9971 186.455 31.9835C186.769 31.9698 187.056 32.0791 187.33 32.2975C187.603 32.5296 187.754 32.8026 187.795 33.103C187.836 33.417 187.74 33.7174 187.494 34.0041C187.248 34.2908 186.974 34.4409 186.66 34.4546C186.345 34.4546 186.058 34.3454 185.785 34.1269C185.525 33.9085 185.375 33.6354 185.334 33.3214L185.32 33.3078Z" fill="black"/>
<path d="M203.971 60.394C203.533 60.6943 203.465 61.0766 203.779 61.5135C203.889 61.6773 204.066 61.8412 204.285 62.0186L203.56 62.5101C203.26 62.3053 203.027 62.0732 202.836 61.8138C202.289 61.022 202.371 60.3257 203.095 59.725C201.714 59.5339 200.58 58.7966 199.705 57.527C199.212 56.8034 198.966 56.0661 198.993 55.288C199.021 54.5098 199.39 53.8818 200.115 53.3903C200.976 52.8032 201.81 52.694 202.658 53.0626C203.506 53.4312 204.23 54.0865 204.859 55.0013C205.42 55.8068 205.844 56.6669 206.158 57.5816L206.664 57.2403C207.334 56.7761 207.717 56.2027 207.827 55.52C207.936 54.8374 207.731 54.1002 207.198 53.3493C206.541 52.3936 205.734 51.6154 204.805 51.0284L205.68 50.4277C206.61 51.0966 207.403 51.9158 208.073 52.8851C208.77 53.8818 209.03 54.8511 208.879 55.7794C208.729 56.7078 208.155 57.5133 207.157 58.1959L203.957 60.4076L203.971 60.394ZM200.798 54.2504C200.306 54.5917 200.06 55.0286 200.06 55.561C200.06 56.1071 200.238 56.6259 200.593 57.1584C200.99 57.7318 201.496 58.1823 202.097 58.5236C202.699 58.8513 203.355 59.0287 204.053 59.0424L205.434 58.0867C205.092 57.1447 204.682 56.3392 204.203 55.6429C203.711 54.933 203.164 54.4279 202.562 54.1275C201.961 53.8272 201.373 53.8681 200.798 54.264L200.798 54.2504Z" fill="black"/>
<path d="M220.105 64.1349L220.584 65.1043L208.182 71.3025L207.69 70.3332L220.091 64.1349L220.105 64.1349Z" fill="black"/>
<path d="M223.797 77.1733L224.412 78.088L221.404 79.1392L222.676 82.7435L221.718 83.0848L220.447 79.4805L215.456 81.228C214.786 81.4601 214.362 81.7878 214.171 82.2247C213.979 82.6479 214.007 83.2076 214.253 83.8903C214.485 84.5319 214.827 85.119 215.306 85.6378L214.376 85.9655C213.884 85.433 213.487 84.764 213.214 83.9585C212.913 83.1121 212.913 82.3612 213.2 81.7195C213.487 81.0779 214.061 80.6 214.936 80.2997L220.105 78.4839L219.544 76.8729L220.501 76.5452L221.062 78.1562L223.81 77.2006L223.797 77.1733Z" fill="black"/>
<path d="M228.323 92.8324L228.815 93.8154L225.684 94.4298L226.422 98.1705L225.438 98.3617L224.699 94.6209L219.517 95.6448C218.82 95.7814 218.355 96.0544 218.109 96.4503C217.863 96.8463 217.808 97.3924 217.958 98.1023C218.095 98.7713 218.355 99.3993 218.751 99.9727L217.781 100.164C217.357 99.5631 217.07 98.8395 216.906 98.0204C216.728 97.133 216.824 96.3957 217.206 95.8087C217.576 95.208 218.218 94.8257 219.121 94.6482L224.494 93.5833L224.166 91.9041L225.151 91.7129L225.479 93.3922L228.337 92.8324L228.323 92.8324Z" fill="black"/>
<path d="M225.602 109.639C226.313 109.939 226.914 110.444 227.407 111.154C227.899 111.864 228.131 112.656 228.131 113.53L227.051 113.598C227.079 112.629 226.805 111.823 226.258 111.154C225.711 110.485 225.014 110.048 224.18 109.844L218.615 110.158L218.546 109.079L227.653 108.547L227.708 109.516L225.602 109.639Z" fill="black"/>
<path d="M227.147 130.745L227.037 131.824L217.958 130.95L218.054 129.967L219.681 130.117C219.216 129.721 218.847 129.189 218.533 128.547C218.232 127.906 218.109 127.196 218.191 126.431C218.3 125.325 218.724 124.465 219.449 123.865C220.173 123.264 221.103 123.018 222.224 123.127L227.83 123.673L227.721 124.752L222.252 124.22C221.336 124.124 220.611 124.301 220.078 124.738C219.544 125.175 219.244 125.803 219.162 126.65C219.093 127.373 219.23 128.042 219.585 128.643C219.941 129.244 220.378 129.749 220.925 130.158L227.147 130.759L227.147 130.745Z" fill="black"/>
<path d="M227.27 144.971C227.051 144.917 226.887 144.808 226.805 144.644C226.723 144.48 226.696 144.302 226.737 144.098C226.791 143.893 226.887 143.729 227.038 143.62C227.188 143.511 227.379 143.483 227.612 143.552C227.817 143.606 227.967 143.715 228.063 143.893C228.159 144.07 228.186 144.248 228.131 144.453C228.077 144.657 227.981 144.794 227.817 144.903C227.653 145.012 227.475 145.04 227.256 144.985L227.27 144.971ZM215.757 141.995L216.017 140.944L224.877 143.101L224.617 144.152L215.757 141.995Z" fill="black"/>
<path d="M219.408 153.723C220.187 154.023 220.652 154.556 220.789 155.32C220.939 156.085 220.843 156.89 220.515 157.737C220.078 158.842 219.449 159.73 218.642 160.412L217.685 160.044C218.519 159.429 219.161 158.569 219.585 157.464C219.818 156.863 219.9 156.303 219.845 155.784C219.777 155.265 219.517 154.924 219.038 154.733C218.642 154.583 218.232 154.637 217.821 154.924C217.411 155.211 217.028 155.593 216.659 156.098C216.29 156.59 215.921 157.081 215.538 157.559C215.155 158.037 214.704 158.406 214.184 158.638C213.665 158.883 213.131 158.883 212.557 158.665C211.764 158.351 211.313 157.819 211.19 157.027C211.067 156.248 211.19 155.375 211.573 154.405C212.092 153.067 212.803 152.084 213.678 151.456L214.663 151.839C213.706 152.494 212.995 153.45 212.502 154.706C211.874 156.303 212.01 157.286 212.913 157.627C213.309 157.778 213.719 157.723 214.116 157.436C214.526 157.15 214.909 156.767 215.265 156.262C215.634 155.771 216.003 155.279 216.399 154.801C216.796 154.323 217.247 153.969 217.767 153.723C218.286 153.491 218.833 153.477 219.394 153.695L219.408 153.723Z" fill="black"/>
<path d="M216.495 172.645L216.208 173.71L213.432 172.126L211.532 175.43L210.657 174.925L212.557 171.621L207.977 169C207.361 168.645 206.828 168.536 206.391 168.686C205.953 168.836 205.543 169.205 205.187 169.833C204.845 170.433 204.64 171.075 204.558 171.771L203.697 171.28C203.779 170.556 204.025 169.819 204.449 169.082C204.9 168.303 205.461 167.812 206.131 167.607C206.801 167.402 207.539 167.525 208.346 167.989L213.091 170.706L213.938 169.218L214.813 169.723L213.966 171.211L216.482 172.659L216.495 172.645Z" fill="black"/>
<path d="M189.463 188.905L190.201 188.141L196.067 193.738L197.202 192.537L197.927 193.233L196.792 194.421L197.722 195.308C198.515 196.059 198.87 196.81 198.829 197.575C198.774 198.339 198.446 199.035 197.845 199.663C197.27 200.264 196.655 200.715 195.999 201.001L195.274 200.305C195.889 200.087 196.45 199.704 196.97 199.158C198.009 198.066 198.009 197.028 196.97 196.045L196.067 195.185L193.524 197.848L192.799 197.151L195.342 194.489L189.477 188.892L189.463 188.905Z" fill="black"/>
<path d="M175.584 202.899C175.27 202.476 174.887 202.421 174.45 202.749C174.285 202.872 174.121 203.049 173.971 203.281L173.451 202.585C173.657 202.285 173.875 202.025 174.135 201.848C174.901 201.274 175.612 201.329 176.241 202.025C176.391 200.633 177.075 199.472 178.319 198.558C179.016 198.039 179.755 197.779 180.534 197.766C181.314 197.766 181.956 198.107 182.476 198.817C183.105 199.65 183.242 200.483 182.9 201.343C182.558 202.189 181.943 202.954 181.04 203.623C180.261 204.21 179.413 204.674 178.511 205.015L178.88 205.507C179.372 206.162 179.96 206.517 180.657 206.599C181.355 206.681 182.066 206.449 182.804 205.889C183.734 205.193 184.486 204.373 185.033 203.418L185.675 204.264C185.046 205.22 184.253 206.039 183.31 206.749C182.339 207.473 181.382 207.773 180.439 207.664C179.495 207.555 178.675 206.995 177.95 206.039L175.612 202.926L175.584 202.899ZM181.614 199.513C181.259 199.035 180.808 198.803 180.261 198.831C179.714 198.844 179.194 199.049 178.688 199.418C178.128 199.841 177.69 200.36 177.389 200.974C177.075 201.588 176.938 202.257 176.952 202.954L177.95 204.292C178.866 203.923 179.673 203.472 180.356 202.967C181.04 202.448 181.532 201.889 181.82 201.274C182.107 200.66 182.038 200.073 181.614 199.513Z" fill="black"/>
<path d="M169.568 212.77C169.951 213.507 169.951 214.217 169.568 214.886C169.172 215.555 168.57 216.101 167.763 216.524C166.71 217.07 165.657 217.329 164.591 217.302L164.112 216.387C165.152 216.483 166.191 216.251 167.244 215.691C167.818 215.391 168.242 215.036 168.543 214.599C168.83 214.176 168.857 213.725 168.625 213.288C168.419 212.906 168.078 212.688 167.585 212.633C167.093 212.578 166.546 212.619 165.945 212.756C165.343 212.892 164.741 213.015 164.126 213.124C163.524 213.234 162.936 213.206 162.389 213.056C161.843 212.892 161.432 212.551 161.145 212.019C160.749 211.268 160.762 210.558 161.186 209.889C161.61 209.22 162.28 208.646 163.196 208.169C164.482 207.5 165.657 207.227 166.724 207.336L167.216 208.278C166.068 208.155 164.892 208.401 163.702 209.015C162.171 209.807 161.637 210.64 162.075 211.486C162.266 211.868 162.622 212.087 163.114 212.141C163.606 212.196 164.153 212.141 164.755 212.019C165.357 211.882 165.958 211.759 166.574 211.664C167.189 211.554 167.763 211.595 168.31 211.759C168.857 211.923 169.281 212.278 169.554 212.81L169.568 212.77Z" fill="black"/>
<path d="M155.662 226.244L154.637 226.572L152.873 221.152C152.668 221.712 152.34 222.244 151.875 222.749C151.41 223.255 150.836 223.623 150.152 223.842C149.126 224.169 148.183 224.128 147.308 223.691C146.433 223.268 145.831 222.517 145.489 221.466L143.753 216.128L144.778 215.787L146.474 221.002C146.761 221.862 147.212 222.463 147.855 222.777C148.497 223.091 149.195 223.118 149.96 222.872C150.644 222.654 151.191 222.258 151.601 221.698C152.012 221.138 152.299 220.524 152.449 219.869L150.507 213.93L151.533 213.602L155.649 226.231L155.662 226.244Z" fill="black"/>
<path d="M134.687 230.245C134.646 230.026 134.687 229.835 134.797 229.685C134.92 229.535 135.07 229.439 135.275 229.412C135.481 229.371 135.672 229.412 135.836 229.494C136 229.589 136.096 229.753 136.137 229.985C136.178 230.19 136.137 230.381 136.014 230.531C135.891 230.682 135.727 230.777 135.535 230.818C135.33 230.859 135.152 230.818 134.988 230.709C134.824 230.6 134.728 230.436 134.701 230.231L134.687 230.245ZM132.828 218.517L133.894 218.34L135.453 227.309L134.387 227.487L132.828 218.517Z" fill="black"/>
<path d="M121.998 220.866C122.969 221.698 123.475 222.845 123.516 224.306C123.557 225.767 123.12 226.941 122.203 227.828C121.287 228.702 120.166 229.166 118.867 229.207C117.554 229.248 116.406 228.852 115.435 228.019C114.464 227.187 113.958 226.04 113.917 224.579C113.876 223.118 114.314 221.944 115.23 221.057C116.146 220.169 117.267 219.719 118.58 219.678C119.879 219.637 121.014 220.033 121.985 220.866L121.998 220.866ZM115.982 221.78C115.285 222.477 114.956 223.391 114.998 224.538C115.025 225.685 115.408 226.586 116.132 227.241C116.857 227.897 117.746 228.197 118.799 228.17C119.852 228.142 120.727 227.774 121.424 227.091C122.121 226.408 122.45 225.48 122.422 224.333C122.395 223.186 122.012 222.285 121.274 221.63C120.535 220.975 119.646 220.674 118.594 220.702C117.541 220.729 116.666 221.084 115.982 221.78Z" fill="black"/>
<path d="M102.322 226.641C101.898 227.077 101.352 227.432 100.682 227.705C100.012 227.979 99.3005 228.06 98.5485 227.951C97.4819 227.787 96.6615 227.323 96.0736 226.559C95.4856 225.781 95.2668 224.852 95.4309 223.746L96.265 218.19L97.3315 218.354L96.5248 223.774C96.3881 224.675 96.5248 225.412 96.9624 225.972C97.3862 226.531 98.0015 226.873 98.8083 226.996C99.5193 227.105 100.189 226.996 100.805 226.682C101.42 226.368 101.953 225.944 102.391 225.426L103.307 219.255L104.373 219.418L103.033 228.429L102.076 228.293L102.322 226.682L102.322 226.641Z" fill="black"/>
</svg>
