<svg width="279" height="228" viewBox="0 0 279 228" fill="none" xmlns="http://www.w3.org/2000/svg">
<path d="M154.314 80.8728V88.4436C154.314 89.9723 154.428 92.1146 154.667 94.8705C154.896 97.6263 155.28 99.9766 155.809 101.911C156.339 103.845 157.066 105.904 158.011 108.067C158.945 110.241 160.181 112.061 161.697 113.527C163.213 114.993 165.04 116.137 167.148 116.959H132.353V102.348C125.905 107.163 117.878 110.823 108.284 113.35C98.6793 115.877 88.8357 117.136 78.7637 117.136C53.2202 117.136 33.8342 113.818 20.5952 107.194C7.34582 100.559 0.492696 91.5531 0.0254375 80.1761C-0.213384 75.4859 1.22993 70.9934 4.3346 66.7088C7.43928 62.4242 12.0911 58.5244 18.3004 55.0094C24.5098 51.484 32.8893 48.6762 43.4286 46.5651C53.9679 44.454 66.0335 43.3933 79.6255 43.3933C87.9428 43.3933 95.2008 42.9877 101.421 42.1661C107.63 41.3446 112.458 40.263 115.916 38.9111C119.374 37.5592 122.011 36.0409 123.828 34.3354C125.645 32.6403 126.403 30.7892 126.113 28.7925C125.822 26.7958 124.97 24.8095 123.569 22.8128C122.167 20.8161 120.028 18.8818 117.152 17.0099C114.275 15.138 111.119 13.4325 107.661 11.9038C104.203 10.3855 100.372 9.06473 96.1561 7.94159C91.9404 6.82885 87.6624 6.03849 83.3325 5.57052C77.4762 5.10255 71.7652 5.10255 66.1996 5.57052C60.6341 6.03849 55.3904 7.03684 50.4686 8.56556C45.5468 10.0943 41.2169 11.9662 37.4684 14.2021C33.72 16.4379 30.6984 19.069 28.414 22.1264C26.1296 25.1735 24.8732 28.4077 24.6344 31.8083C19.9514 32.2763 16.0472 31.6939 12.9529 30.0508C9.84825 28.4077 8.32187 26.1198 8.38418 23.1872C8.44648 20.2545 10.2844 17.3219 13.9186 14.3892C19.5465 10.0527 27.9779 6.46487 39.2232 3.65702C50.4582 0.797179 63.7595 -0.367558 79.1064 0.100417C98.5547 0.807578 114.255 4.53058 126.196 11.2798C138.147 18.029 146.288 26.6814 150.618 37.2368C151.905 40.2942 152.871 43.9236 153.515 48.1458C154.158 52.368 154.512 55.831 154.574 58.5244C154.636 61.2283 154.605 65.2425 154.491 70.5774C154.377 75.9123 154.314 79.3441 154.314 80.8728ZM132 61.6859C132.353 51.1304 131.533 42.8005 129.539 36.696C128.605 39.7431 125.375 42.1557 119.872 43.9132C114.369 45.6707 108.45 46.8147 102.127 47.3451C95.8031 47.8754 88.0051 48.1978 78.7533 48.3122C68.2141 48.5514 59.2219 49.6329 51.7769 51.5672C44.3319 53.5015 38.7145 56.0598 34.9037 59.2212C31.0929 62.393 28.5178 65.7936 27.168 69.4334C25.8181 73.0732 25.4962 77.0042 26.2023 81.2264C27.8429 90.6171 33.232 97.9487 42.3695 103.221C51.507 108.504 63.5103 111.374 78.3899 111.842C86.7071 112.082 93.9964 111.406 100.268 109.814C106.529 108.234 111.607 106.029 115.469 103.211C119.332 100.393 122.468 96.732 124.867 92.2082C127.265 87.6949 128.968 83.0567 129.965 78.3042C130.962 73.5516 131.637 68.0087 131.99 61.6755L132 61.6859Z" fill="white"/>
<path d="M193.792 94.6729V168.592C193.792 171.171 193.824 173.199 193.876 174.665C193.938 176.132 194.021 178.274 194.135 181.092C194.249 183.91 194.457 186.261 194.748 188.133C195.038 190.015 195.506 192.178 196.15 194.643C196.793 197.107 197.551 199.156 198.434 200.799C199.316 202.442 200.459 204.023 201.86 205.552C203.262 207.08 204.903 208.256 206.782 209.067H189.213C184.292 209.067 180.107 207.34 176.649 203.877C173.192 200.414 171.468 196.286 171.468 191.471V115.441C171.468 108.171 170.616 103.003 168.924 99.9558C167.221 96.9088 163.275 94.3193 157.066 92.2082C164.916 91.3867 172.299 89.39 179.204 86.2286C186.119 83.0567 190.979 78.7826 193.792 73.3853V89.754H224.31V94.6833H193.792V94.6729Z" fill="white"/>
<path d="M168.176 64.7117C168.301 65.0965 168.56 65.2213 168.955 65.0965C169.1 65.0445 169.256 64.9613 169.433 64.8365L169.64 65.4709C169.422 65.6477 169.204 65.7724 168.976 65.8452C168.28 66.074 167.792 65.866 167.501 65.2109C167.065 66.178 166.286 66.8436 165.165 67.218C164.532 67.426 163.94 67.4364 163.379 67.2492C162.818 67.062 162.434 66.6564 162.226 66.022C161.977 65.2733 162.081 64.6285 162.538 64.0981C162.995 63.5678 163.618 63.1726 164.428 62.9022C165.134 62.6734 165.85 62.5382 166.587 62.507L166.442 62.0702C166.245 61.4879 165.913 61.0823 165.435 60.8535C164.957 60.6247 164.376 60.6247 163.711 60.8535C162.87 61.1343 162.133 61.5503 161.51 62.1014L161.261 61.3319C161.946 60.8015 162.714 60.3959 163.566 60.1152C164.438 59.824 165.206 59.8344 165.85 60.1464C166.494 60.4583 166.961 61.0511 167.252 61.9247L168.187 64.7429L168.176 64.7117ZM163.016 65.6997C163.161 66.126 163.421 66.4068 163.815 66.5212C164.21 66.6356 164.635 66.6252 165.092 66.4692C165.591 66.3028 166.037 66.0324 166.411 65.6581C166.785 65.2837 167.055 64.8469 167.21 64.3373L166.816 63.131C166.058 63.1726 165.373 63.2974 164.77 63.5054C164.147 63.7134 163.659 64.0045 163.306 64.3789C162.953 64.7533 162.86 65.1901 163.026 65.6997H163.016Z" fill="white"/>
<path d="M174.344 53.7298L175.154 53.5842L177.033 63.9629L176.224 64.1085L174.344 53.7298Z" fill="white"/>
<path d="M184.634 53.8235L185.434 53.5635L185.569 55.9865L188.466 55.8306L188.507 56.6001L185.61 56.7561L185.828 60.7703C185.86 61.3111 186.005 61.6958 186.285 61.9142C186.555 62.143 186.971 62.2366 187.511 62.2054C188.03 62.1742 188.528 62.0494 189.006 61.8102L189.047 62.559C188.549 62.8086 187.978 62.9542 187.334 62.9854C186.649 63.027 186.109 62.871 185.693 62.5278C185.288 62.1846 185.06 61.6542 185.018 60.9575L184.79 56.7977L183.492 56.8705L183.451 56.1009L184.749 56.0281L184.634 53.8235Z" fill="white"/>
<path d="M197.043 53.8441L197.863 53.6985L197.655 56.1216L200.542 56.3711L200.48 57.1303L197.593 56.8807L197.24 60.8845C197.188 61.4253 197.292 61.8204 197.531 62.0804C197.769 62.3404 198.164 62.4964 198.704 62.5484C199.223 62.59 199.732 62.5276 200.241 62.3612L200.178 63.11C199.649 63.2868 199.067 63.3492 198.424 63.2868C197.738 63.2244 197.23 62.9956 196.866 62.6004C196.503 62.2052 196.357 61.6541 196.42 60.9469L196.783 56.7975L195.485 56.6831L195.547 55.924L196.845 56.0384L197.043 53.8337V53.8441Z" fill="white"/>
<path d="M208.755 59.4079C209.129 58.9504 209.617 58.6176 210.24 58.42C210.863 58.2224 211.486 58.212 212.13 58.3888L211.943 59.1896C211.247 58.9712 210.593 58.992 209.991 59.252C209.389 59.5119 208.921 59.9279 208.6 60.4999L207.655 64.6285L206.855 64.4413L208.402 57.6816L209.119 57.848L208.766 59.4079H208.755Z" fill="white"/>
<path d="M224.507 62.7881L225.275 63.0897L222.7 69.527L222.005 69.2462L222.462 68.0919C222.067 68.3414 221.61 68.5078 221.07 68.591C220.53 68.6742 219.99 68.6118 219.45 68.3934C218.661 68.0815 218.132 67.5927 217.841 66.9271C217.561 66.2616 217.571 65.5336 217.893 64.7328L219.481 60.7603L220.25 61.0618L218.703 64.9408C218.443 65.596 218.412 66.1576 218.609 66.6359C218.807 67.1143 219.212 67.4783 219.814 67.7175C220.333 67.9255 220.842 67.9671 221.361 67.8423C221.87 67.7175 222.337 67.4991 222.752 67.1871L224.517 62.7673L224.507 62.7881Z" fill="white"/>
<path d="M230.259 73.4994L229.543 73.0835L233.011 67.083L233.727 67.499L230.259 73.4994ZM234.901 65.7311C234.818 65.8767 234.703 65.9703 234.558 66.0015C234.423 66.0326 234.278 66.0015 234.153 65.9287C234.008 65.8455 233.914 65.7415 233.873 65.6063C233.821 65.4711 233.852 65.3255 233.945 65.1695C234.028 65.0239 234.143 64.9407 234.288 64.9095C234.433 64.8783 234.568 64.9095 234.703 64.9823C234.838 65.0655 234.921 65.1695 234.963 65.3047C235.004 65.4399 234.984 65.5855 234.901 65.7311Z" fill="white"/>
<path d="M239.615 73.3642C239.999 72.8546 240.487 72.6362 241.079 72.6986C241.671 72.761 242.232 73.0002 242.782 73.4266C243.498 73.9777 244.018 74.6329 244.329 75.3713L243.851 75.9848C243.582 75.2465 243.093 74.5913 242.377 74.0401C241.993 73.7386 241.598 73.5618 241.214 73.489C240.83 73.4266 240.508 73.5514 240.28 73.8529C240.082 74.1129 240.041 74.4249 240.155 74.7785C240.269 75.1321 240.477 75.5065 240.757 75.8808C241.038 76.2552 241.318 76.6296 241.588 77.0144C241.858 77.3992 242.024 77.8047 242.086 78.2311C242.149 78.6575 242.045 79.0527 241.764 79.427C241.37 79.9366 240.871 80.155 240.28 80.0718C239.688 79.999 239.075 79.7182 238.452 79.2295C237.58 78.5535 237.019 77.8359 236.749 77.056L237.248 76.4112C237.528 77.2432 238.068 77.9815 238.878 78.6055C239.916 79.4062 240.653 79.5206 241.1 78.9383C241.297 78.6783 241.339 78.3663 241.214 78.0127C241.089 77.6591 240.892 77.2952 240.601 76.9208C240.311 76.5464 240.041 76.172 239.771 75.7768C239.501 75.3921 239.345 74.9761 239.283 74.5497C239.22 74.1129 239.335 73.7178 239.615 73.3538V73.3642Z" fill="white"/>
<path d="M252.792 79.531L253.508 79.9678L251.764 81.6525L253.778 83.7428L253.228 84.2731L251.213 82.1829L248.327 84.9699C247.943 85.3443 247.745 85.7083 247.756 86.0618C247.756 86.4154 247.953 86.7898 248.337 87.185C248.701 87.5594 249.126 87.8506 249.614 88.0585L249.074 88.5785C248.566 88.3601 248.078 88.0273 247.631 87.5594C247.153 87.0706 246.915 86.5506 246.915 86.0203C246.915 85.4899 247.153 84.9699 247.662 84.4811L250.653 81.5901L249.749 80.6541L250.3 80.1238L251.203 81.0597L252.792 79.531Z" fill="white"/>
<path d="M258.96 102.722L258.565 102.015L263.944 98.9988L263.331 97.8965L263.996 97.5221L264.608 98.6244L265.46 98.1461C266.186 97.7405 266.809 97.6469 267.36 97.8549C267.9 98.0629 268.336 98.458 268.658 99.0404C268.969 99.5916 269.156 100.143 269.208 100.684L268.544 101.058C268.523 100.559 268.367 100.07 268.097 99.5708C267.536 98.5724 266.789 98.3333 265.833 98.8636L265.003 99.3316L266.373 101.775L265.709 102.15L264.338 99.706L258.96 102.722Z" fill="white"/>
<path d="M266.187 115.815C265.802 115.96 265.688 116.22 265.833 116.605C265.885 116.751 265.979 116.907 266.114 117.073L265.491 117.302C265.314 117.094 265.179 116.875 265.096 116.647C264.837 115.96 265.034 115.461 265.678 115.149C264.691 114.743 263.996 113.995 263.591 112.892C263.362 112.268 263.321 111.676 263.487 111.114C263.653 110.552 264.048 110.147 264.671 109.918C265.408 109.637 266.052 109.721 266.602 110.157C267.152 110.594 267.568 111.208 267.869 111.998C268.128 112.695 268.284 113.412 268.346 114.151L268.782 113.995C269.353 113.776 269.748 113.423 269.956 112.934C270.163 112.445 270.143 111.873 269.904 111.208C269.592 110.376 269.156 109.658 268.575 109.045L269.333 108.764C269.893 109.429 270.319 110.189 270.641 111.02C270.963 111.884 270.984 112.653 270.693 113.308C270.402 113.964 269.831 114.452 268.98 114.775L266.207 115.815H266.187ZM265.003 110.688C264.577 110.844 264.317 111.124 264.214 111.52C264.11 111.915 264.141 112.341 264.307 112.799C264.494 113.298 264.774 113.724 265.159 114.088C265.543 114.452 265.989 114.702 266.508 114.837L267.703 114.39C267.63 113.641 267.474 112.955 267.256 112.352C267.028 111.738 266.716 111.26 266.332 110.927C265.948 110.594 265.501 110.511 265.003 110.698V110.688Z" fill="white"/>
<path d="M272.116 122.345C272.739 122.22 273.248 122.376 273.652 122.803C274.057 123.229 274.327 123.791 274.462 124.467C274.639 125.361 274.597 126.183 274.348 126.952L273.58 127.108C273.871 126.37 273.922 125.559 273.746 124.675C273.652 124.196 273.476 123.801 273.227 123.5C272.978 123.198 272.656 123.084 272.282 123.156C271.96 123.219 271.732 123.427 271.576 123.77C271.43 124.113 271.337 124.529 271.306 124.997C271.275 125.465 271.233 125.933 271.192 126.401C271.14 126.869 271.005 127.285 270.766 127.649C270.537 128.013 270.195 128.242 269.738 128.335C269.104 128.46 268.585 128.294 268.191 127.846C267.796 127.399 267.516 126.786 267.36 126.006C267.142 124.924 267.194 124.009 267.505 123.25L268.295 123.094C267.952 123.905 267.879 124.82 268.087 125.819C268.336 127.108 268.824 127.68 269.541 127.534C269.862 127.472 270.091 127.264 270.236 126.921C270.382 126.567 270.465 126.162 270.496 125.694C270.527 125.226 270.569 124.758 270.62 124.29C270.672 123.822 270.818 123.406 271.057 123.042C271.295 122.678 271.638 122.449 272.095 122.356L272.116 122.345Z" fill="white"/>
<path d="M278.979 135.355L279 136.176L274.67 136.312C275.034 136.582 275.356 136.936 275.626 137.383C275.895 137.83 276.041 138.319 276.062 138.87C276.082 139.691 275.854 140.367 275.356 140.919C274.857 141.459 274.182 141.751 273.341 141.782L269.074 141.917L269.053 141.095L273.217 140.96C273.912 140.939 274.442 140.731 274.795 140.336C275.148 139.941 275.324 139.431 275.314 138.818C275.293 138.267 275.127 137.788 274.805 137.362C274.483 136.946 274.099 136.603 273.642 136.353L268.897 136.499L268.876 135.677L278.969 135.355H278.979Z" fill="white"/>
<path d="M268.492 150.382L268.585 149.561L275.469 150.33L275.376 151.152L268.492 150.382ZM277.453 151.516C277.276 151.495 277.151 151.433 277.068 151.308C276.985 151.194 276.954 151.058 276.965 150.902C276.985 150.736 277.048 150.611 277.141 150.518C277.245 150.424 277.39 150.382 277.567 150.403C277.733 150.424 277.858 150.486 277.941 150.611C278.024 150.736 278.065 150.871 278.044 151.027C278.024 151.183 277.961 151.308 277.847 151.402C277.733 151.495 277.598 151.537 277.432 151.516H277.453Z" fill="white"/>
<path d="M267.92 158.795C268.73 158.265 269.675 158.14 270.755 158.421C271.835 158.702 272.603 159.274 273.05 160.137C273.496 160.99 273.6 161.905 273.351 162.862C273.102 163.829 272.572 164.577 271.762 165.108C270.952 165.638 270.007 165.763 268.927 165.482C267.848 165.201 267.079 164.629 266.633 163.766C266.186 162.903 266.093 161.998 266.342 161.021C266.591 160.064 267.121 159.315 267.931 158.785L267.92 158.795ZM267.318 163.381C267.671 164.037 268.273 164.463 269.125 164.692C269.976 164.91 270.713 164.827 271.336 164.432C271.97 164.037 272.385 163.454 272.582 162.685C272.78 161.915 272.707 161.198 272.354 160.542C272.001 159.887 271.399 159.45 270.547 159.232C269.696 159.014 268.959 159.097 268.325 159.502C267.692 159.898 267.276 160.49 267.079 161.26C266.882 162.03 266.955 162.747 267.318 163.402V163.381Z" fill="white"/>
<path d="M267.962 174.394C268.19 174.8 268.325 175.268 268.388 175.819C268.44 176.37 268.346 176.901 268.107 177.421C267.765 178.169 267.246 178.668 266.56 178.928C265.875 179.188 265.138 179.147 264.369 178.793L260.486 177.005L260.828 176.256L264.618 178.003C265.252 178.294 265.813 178.346 266.311 178.148C266.809 177.961 267.194 177.576 267.453 177.015C267.682 176.516 267.744 176.006 267.65 175.486C267.547 174.966 267.36 174.498 267.069 174.061L262.76 172.065L263.102 171.316L269.395 174.228L269.083 174.893L267.962 174.373V174.394Z" fill="white"/>
<path d="M254.297 194.185C254.536 194.154 254.765 194.226 254.972 194.414C255.19 194.59 255.294 194.809 255.304 195.048C255.315 195.287 255.232 195.505 255.066 195.713C254.889 195.921 254.681 196.036 254.453 196.067C254.214 196.098 253.986 196.025 253.768 195.838C253.55 195.651 253.435 195.443 253.425 195.204C253.425 194.965 253.508 194.746 253.674 194.538C253.84 194.341 254.048 194.226 254.287 194.195L254.297 194.185Z" fill="white"/>
<path d="M233.696 208.369C233.468 208.036 233.177 207.984 232.845 208.224C232.72 208.307 232.596 208.442 232.461 208.608L232.087 208.057C232.243 207.828 232.419 207.652 232.617 207.506C233.219 207.09 233.748 207.152 234.205 207.704C234.351 206.653 234.911 205.79 235.877 205.124C236.427 204.75 236.988 204.563 237.58 204.584C238.172 204.605 238.649 204.885 239.023 205.436C239.47 206.092 239.553 206.726 239.272 207.371C238.992 208.016 238.494 208.567 237.798 209.045C237.185 209.471 236.531 209.794 235.835 210.033L236.095 210.418C236.448 210.927 236.884 211.219 237.403 211.302C237.923 211.385 238.483 211.229 239.054 210.823C239.781 210.324 240.373 209.711 240.82 209.003L241.276 209.669C240.768 210.376 240.145 210.979 239.407 211.489C238.649 212.019 237.912 212.217 237.206 212.103C236.5 211.988 235.887 211.551 235.368 210.792L233.686 208.359L233.696 208.369ZM238.369 205.956C238.109 205.582 237.777 205.395 237.372 205.395C236.957 205.395 236.562 205.53 236.157 205.8C235.721 206.102 235.379 206.487 235.119 206.944C234.87 207.402 234.735 207.901 234.724 208.432L235.451 209.482C236.168 209.222 236.78 208.91 237.31 208.546C237.85 208.172 238.234 207.756 238.463 207.298C238.691 206.84 238.66 206.393 238.359 205.956H238.369Z" fill="white"/>
<path d="M230.851 220.641L230.114 221.005L225.4 211.573L226.137 211.198L230.851 220.631V220.641Z" fill="white"/>
<path d="M220.935 223.449L220.239 223.917L219.44 221.629L216.698 222.596L216.439 221.868L219.18 220.901L217.851 217.105C217.674 216.595 217.425 216.273 217.093 216.127C216.771 215.982 216.345 216.003 215.826 216.19C215.338 216.367 214.892 216.627 214.497 216.991L214.248 216.283C214.653 215.909 215.162 215.607 215.774 215.399C216.418 215.171 216.989 215.171 217.477 215.389C217.965 215.607 218.329 216.044 218.557 216.71L219.938 220.641L221.163 220.214L221.413 220.942L220.187 221.369L220.914 223.459L220.935 223.449Z" fill="white"/>
<path d="M209.025 226.891L208.278 227.265L207.811 224.884L204.965 225.445L204.82 224.697L207.665 224.135L206.886 220.194C206.783 219.663 206.575 219.31 206.274 219.122C205.973 218.935 205.557 218.894 205.017 219.008C204.509 219.112 204.031 219.31 203.595 219.611L203.449 218.873C203.906 218.55 204.457 218.332 205.08 218.207C205.755 218.072 206.315 218.145 206.762 218.436C207.219 218.717 207.509 219.206 207.644 219.892L208.454 223.979L209.731 223.729L209.877 224.478L208.6 224.728L209.025 226.901V226.891Z" fill="white"/>
<path d="M196.243 224.822C196.014 225.363 195.63 225.82 195.09 226.195C194.55 226.569 193.948 226.746 193.283 226.746L193.232 225.924C193.969 225.945 194.581 225.737 195.09 225.321C195.599 224.905 195.931 224.375 196.087 223.74L195.848 219.508L196.669 219.456L197.073 226.382L196.336 226.423L196.243 224.822Z" fill="white"/>
<path d="M180.19 225.997L179.37 225.914L180.034 219.008L180.782 219.081L180.668 220.319C180.969 219.965 181.374 219.684 181.862 219.445C182.35 219.216 182.89 219.123 183.471 219.185C184.312 219.268 184.966 219.591 185.423 220.142C185.88 220.693 186.067 221.4 185.984 222.253L185.569 226.517L184.748 226.434L185.153 222.274C185.226 221.577 185.091 221.026 184.759 220.62C184.426 220.215 183.949 219.986 183.305 219.924C182.755 219.872 182.246 219.976 181.789 220.246C181.332 220.516 180.948 220.849 180.636 221.265L180.18 225.997H180.19Z" fill="white"/>
<path d="M169.371 226.09C169.412 225.924 169.495 225.799 169.62 225.736C169.744 225.674 169.879 225.653 170.035 225.684C170.191 225.726 170.315 225.799 170.398 225.913C170.482 226.028 170.502 226.173 170.45 226.35C170.409 226.506 170.326 226.62 170.191 226.693C170.056 226.766 169.921 226.787 169.765 226.745C169.609 226.704 169.505 226.631 169.422 226.506C169.339 226.381 169.319 226.246 169.36 226.08L169.371 226.09ZM171.634 217.334L172.434 217.531L170.793 224.27L169.994 224.073L171.634 217.334Z" fill="white"/>
<path d="M162.715 220.111C162.486 220.703 162.081 221.057 161.5 221.161C160.918 221.275 160.306 221.203 159.662 220.953C158.821 220.62 158.146 220.142 157.627 219.528L157.907 218.8C158.374 219.435 159.028 219.923 159.869 220.246C160.326 220.423 160.752 220.485 161.147 220.443C161.541 220.391 161.801 220.194 161.946 219.83C162.06 219.528 162.019 219.216 161.801 218.904C161.583 218.592 161.292 218.301 160.908 218.02C160.534 217.739 160.16 217.459 159.797 217.168C159.433 216.876 159.153 216.533 158.976 216.138C158.79 215.743 158.79 215.337 158.956 214.9C159.194 214.297 159.599 213.954 160.202 213.86C160.794 213.767 161.458 213.86 162.195 214.152C163.213 214.547 163.961 215.088 164.438 215.753L164.147 216.502C163.649 215.774 162.922 215.233 161.967 214.859C160.752 214.38 160.004 214.484 159.745 215.171C159.631 215.472 159.672 215.784 159.89 216.086C160.108 216.398 160.399 216.689 160.783 216.96C161.157 217.24 161.531 217.521 161.894 217.823C162.258 218.124 162.528 218.467 162.715 218.863C162.891 219.258 162.901 219.674 162.735 220.1L162.715 220.111Z" fill="white"/>
<path d="M148.323 217.896L147.513 217.677L148.718 215.566L146.205 214.121L146.589 213.455L149.102 214.901L151.095 211.417C151.365 210.949 151.448 210.543 151.334 210.21C151.22 209.878 150.94 209.566 150.462 209.295C150.005 209.035 149.517 208.879 148.987 208.817L149.361 208.162C149.912 208.224 150.472 208.411 151.033 208.734C151.625 209.077 151.999 209.503 152.154 210.013C152.31 210.522 152.217 211.084 151.864 211.698L149.797 215.306L150.929 215.951L150.545 216.616L149.413 215.972L148.313 217.885L148.323 217.896Z" fill="white"/>
<path d="M135.956 197.336L136.538 197.898L132.281 202.359L133.194 203.222L132.665 203.773L131.761 202.91L131.087 203.617C130.515 204.22 129.944 204.491 129.363 204.46C128.781 204.418 128.252 204.168 127.774 203.711C127.317 203.274 126.975 202.806 126.757 202.307L127.286 201.756C127.452 202.224 127.743 202.65 128.158 203.045C128.989 203.836 129.778 203.836 130.526 203.045L131.18 202.359L129.155 200.425L129.685 199.874L131.71 201.808L135.967 197.346L135.956 197.336Z" fill="white"/>
<path d="M125.313 186.78C125.635 186.541 125.677 186.25 125.427 185.917C125.334 185.792 125.199 185.667 125.022 185.553L125.552 185.158C125.78 185.314 125.978 185.48 126.113 185.678C126.549 186.26 126.507 186.801 125.978 187.279C127.037 187.393 127.919 187.913 128.615 188.86C129.01 189.39 129.207 189.952 129.217 190.544C129.217 191.137 128.958 191.626 128.418 192.021C127.784 192.5 127.151 192.604 126.497 192.344C125.853 192.084 125.272 191.616 124.763 190.929C124.316 190.337 123.963 189.692 123.704 189.005L123.33 189.286C122.832 189.661 122.562 190.108 122.499 190.638C122.437 191.168 122.613 191.709 123.039 192.271C123.569 192.978 124.192 193.55 124.919 193.966L124.275 194.455C123.548 193.976 122.925 193.373 122.385 192.656C121.835 191.917 121.606 191.189 121.689 190.472C121.772 189.754 122.198 189.13 122.925 188.579L125.292 186.801L125.313 186.78ZM127.888 191.366C128.252 191.096 128.428 190.752 128.407 190.337C128.397 189.921 128.241 189.525 127.961 189.141C127.639 188.714 127.244 188.381 126.777 188.153C126.31 187.913 125.801 187.809 125.272 187.82L124.254 188.579C124.534 189.276 124.877 189.889 125.261 190.409C125.656 190.929 126.082 191.304 126.549 191.522C127.016 191.74 127.463 191.688 127.888 191.366Z" fill="white"/>
<path d="M117.806 182.205C117.245 182.496 116.705 182.496 116.196 182.205C115.688 181.903 115.272 181.445 114.95 180.832C114.535 180.031 114.338 179.23 114.359 178.419L115.054 178.055C114.982 178.846 115.158 179.636 115.584 180.437C115.812 180.873 116.082 181.196 116.414 181.425C116.736 181.643 117.079 181.664 117.411 181.487C117.702 181.331 117.868 181.071 117.91 180.697C117.951 180.322 117.92 179.906 117.816 179.449C117.712 178.991 117.619 178.534 117.536 178.066C117.453 177.608 117.474 177.161 117.588 176.745C117.712 176.329 117.972 176.017 118.377 175.798C118.948 175.497 119.488 175.507 119.997 175.83C120.506 176.152 120.942 176.662 121.305 177.358C121.814 178.336 122.022 179.23 121.939 180.041L121.222 180.416C121.316 179.542 121.129 178.648 120.661 177.743C120.059 176.578 119.426 176.173 118.782 176.506C118.491 176.651 118.325 176.922 118.284 177.296C118.242 177.67 118.284 178.086 118.377 178.544C118.481 179.002 118.574 179.459 118.647 179.927C118.73 180.395 118.699 180.832 118.574 181.248C118.45 181.664 118.18 181.986 117.775 182.194L117.806 182.205Z" fill="white"/>
<path d="M107.558 171.628L107.308 170.848L111.431 169.507C111.005 169.351 110.6 169.101 110.216 168.748C109.832 168.394 109.551 167.957 109.385 167.437C109.136 166.657 109.167 165.94 109.499 165.274C109.821 164.609 110.392 164.151 111.192 163.891L115.252 162.57L115.511 163.35L111.545 164.64C110.891 164.858 110.434 165.201 110.195 165.69C109.956 166.179 109.935 166.709 110.122 167.292C110.288 167.812 110.59 168.228 111.015 168.54C111.441 168.852 111.908 169.07 112.407 169.184L116.923 167.708L117.173 168.488L107.568 171.618L107.558 171.628Z" fill="white"/>
<path d="M104.515 155.676C104.681 155.645 104.827 155.676 104.941 155.759C105.055 155.853 105.128 155.967 105.149 156.123C105.18 156.279 105.149 156.425 105.086 156.55C105.014 156.674 104.889 156.747 104.712 156.778C104.557 156.81 104.411 156.778 104.297 156.685C104.183 156.591 104.11 156.466 104.079 156.321C104.048 156.165 104.079 156.03 104.162 155.905C104.245 155.78 104.37 155.707 104.526 155.686L104.515 155.676ZM113.435 154.262L113.57 155.073L106.748 156.258L106.613 155.447L113.435 154.262Z" fill="white"/>
<path d="M111.649 146.025C111.015 146.763 110.143 147.148 109.032 147.179C107.921 147.21 107.028 146.877 106.353 146.181C105.689 145.484 105.336 144.631 105.304 143.643C105.273 142.645 105.574 141.771 106.208 141.033C106.841 140.294 107.713 139.91 108.824 139.878C109.935 139.847 110.828 140.18 111.503 140.877C112.178 141.574 112.521 142.426 112.552 143.425C112.583 144.413 112.282 145.276 111.649 146.014V146.025ZM110.953 141.449C110.424 140.918 109.728 140.669 108.856 140.7C107.983 140.721 107.298 141.012 106.8 141.563C106.301 142.114 106.073 142.79 106.094 143.591C106.114 144.392 106.395 145.057 106.914 145.588C107.433 146.118 108.139 146.368 109.011 146.347C109.884 146.326 110.569 146.035 111.067 145.473C111.566 144.912 111.794 144.236 111.773 143.435C111.753 142.634 111.483 141.969 110.953 141.449Z" fill="white"/>
<path d="M107.256 131.06C106.924 130.737 106.654 130.321 106.446 129.812C106.238 129.302 106.176 128.761 106.259 128.189C106.384 127.378 106.737 126.754 107.318 126.307C107.91 125.86 108.616 125.694 109.457 125.818L113.683 126.453L113.559 127.264L109.437 126.65C108.751 126.546 108.191 126.65 107.765 126.983C107.339 127.306 107.079 127.774 106.986 128.387C106.903 128.928 106.986 129.437 107.225 129.905C107.464 130.373 107.786 130.779 108.18 131.112L112.873 131.808L112.749 132.62L105.896 131.601L106 130.873L107.225 131.06H107.256Z" fill="white"/>
</svg>
