<svg width="158" height="128" viewBox="0 0 158 128" fill="none" xmlns="http://www.w3.org/2000/svg">
<path d="M87.8353 45.5099V49.7702C87.8353 50.6305 87.8995 51.836 88.0339 53.3868C88.1625 54.9377 88.3787 56.2602 88.6767 57.3487C88.9747 58.4372 89.3837 59.5959 89.9154 60.8132C90.4413 62.0363 91.1367 63.0604 91.9898 63.8855C92.8429 64.7107 93.8713 65.3544 95.0574 65.8167H75.477V57.5945C71.8484 60.304 67.3316 62.364 61.9325 63.7861C56.5276 65.2081 50.9883 65.9162 45.3204 65.9162C30.9462 65.9162 20.037 64.0494 12.587 60.3216C5.13112 56.588 1.27463 51.52 1.01169 45.1178C0.877297 42.4785 1.6895 39.9504 3.4366 37.5393C5.18371 35.1282 7.80145 32.9337 11.2957 30.9557C14.7899 28.9718 19.5053 27.3917 25.4361 26.2038C31.3669 25.0158 38.1567 24.4189 45.8054 24.4189C50.4858 24.4189 54.5701 24.1906 58.0702 23.7283C61.5644 23.266 64.2815 22.6574 66.2272 21.8966C68.173 21.1358 69.6572 20.2814 70.6797 19.3217C71.7023 18.3678 72.1288 17.3261 71.9652 16.2025C71.8016 15.0789 71.3225 13.9611 70.5337 12.8375C69.7448 11.7139 68.5411 10.6254 66.9226 9.57205C65.304 8.51867 63.5277 7.55892 61.5819 6.69866C59.6362 5.84425 57.48 5.10103 55.1077 4.469C52.7354 3.84283 50.328 3.39807 47.8914 3.13472C44.5959 2.87138 41.3821 2.87138 38.2502 3.13472C35.1182 3.39807 32.1674 3.95987 29.3978 4.82013C26.6281 5.68039 24.1915 6.73377 22.0821 7.99198C19.9728 9.25018 18.2724 10.7308 16.9869 12.4513C15.7014 14.166 14.9944 15.986 14.86 17.8996C12.2247 18.163 10.0277 17.8352 8.28643 16.9106C6.53932 15.986 5.68038 14.6985 5.71544 13.0482C5.7505 11.3979 6.78474 9.74761 8.82984 8.09732C11.9968 5.65698 16.7415 3.638 23.0696 2.05793C29.3919 0.4486 36.877 -0.206837 45.5132 0.0565079C56.4575 0.454452 65.2923 2.54951 72.012 6.34753C78.7375 10.1456 83.3185 15.0145 85.7551 20.9544C86.4797 22.6749 87.0231 24.7173 87.3853 27.0933C87.7476 29.4692 87.9463 31.418 87.9813 32.9337C88.0164 34.4552 87.9989 36.7142 87.9346 39.7163C87.8703 42.7184 87.8353 44.6496 87.8353 45.5099ZM75.2783 34.7127C75.477 28.7728 75.0154 24.0853 73.8935 20.6501C73.3676 22.3648 71.5504 23.7225 68.4535 24.7115C65.3566 25.7005 62.026 26.3442 58.4675 26.6427C54.909 26.9411 50.5208 27.1225 45.3146 27.1869C39.3837 27.3215 34.3236 27.9301 30.134 29.0186C25.9445 30.1071 22.7833 31.5467 20.6389 33.3258C18.4944 35.1107 17.0453 37.0243 16.2857 39.0726C15.5261 41.1208 15.345 43.3329 15.7423 45.7089C16.6655 50.9933 19.6981 55.1191 24.8401 58.0861C29.9821 61.059 36.7368 62.6742 45.11 62.9375C49.7904 63.0721 53.8923 62.6917 57.4216 61.7963C60.945 60.9068 63.8023 59.6662 65.976 58.0802C68.1496 56.4943 69.9143 54.4344 71.2641 51.8887C72.6138 49.3489 73.5721 46.7388 74.133 44.0644C74.694 41.39 75.0738 38.2708 75.2725 34.7069L75.2783 34.7127Z" fill="black"/>
<path d="M110.051 53.2755V94.8724C110.051 96.3237 110.069 97.4649 110.098 98.29C110.133 99.1152 110.18 100.321 110.244 101.907C110.308 103.493 110.425 104.815 110.589 105.869C110.752 106.928 111.015 108.145 111.378 109.532C111.74 110.919 112.166 112.072 112.663 112.996C113.16 113.921 113.802 114.811 114.591 115.671C115.38 116.531 116.303 117.192 117.361 117.649H107.474C104.705 117.649 102.35 116.677 100.404 114.729C98.4583 112.78 97.4883 110.457 97.4883 107.747V64.9622C97.4883 60.8716 97.0092 57.9631 96.0567 56.2484C95.0985 54.5338 92.8781 53.0766 89.3839 51.8886C93.8013 51.4263 97.9558 50.3027 101.841 48.5236C105.733 46.7387 108.468 44.3335 110.051 41.2963V50.5075H127.224V53.2814H110.051V53.2755Z" fill="black"/>
<path d="M95.6358 36.4155C95.7059 36.632 95.852 36.7022 96.074 36.632C96.1559 36.6028 96.2435 36.5559 96.3428 36.4857L96.4597 36.8427C96.337 36.9422 96.2143 37.0124 96.0857 37.0534C95.6942 37.1821 95.4196 37.0651 95.256 36.6964C95.0106 37.2406 94.5724 37.6152 93.9413 37.8259C93.5849 37.9429 93.2518 37.9487 92.9363 37.8434C92.6207 37.7381 92.4045 37.5098 92.2877 37.1529C92.1474 36.7315 92.2059 36.3687 92.463 36.0702C92.7201 35.7718 93.0707 35.5494 93.5264 35.3972C93.9238 35.2685 94.3269 35.1924 94.7418 35.1748L94.66 34.9291C94.549 34.6013 94.362 34.3731 94.0932 34.2444C93.8244 34.1156 93.4972 34.1156 93.1232 34.2444C92.65 34.4024 92.2351 34.6365 91.8845 34.9466L91.7443 34.5136C92.1299 34.2151 92.5623 33.9869 93.0414 33.8289C93.5323 33.665 93.9647 33.6709 94.3269 33.8464C94.6892 34.022 94.9522 34.3556 95.1158 34.8471L95.6417 36.4331L95.6358 36.4155ZM92.7318 36.9714C92.8136 37.2114 92.9596 37.3694 93.1817 37.4338C93.4037 37.4981 93.6433 37.4923 93.9004 37.4045C94.1809 37.3109 94.4321 37.1587 94.6425 36.948C94.8528 36.7374 95.0047 36.4916 95.0924 36.2048L94.8703 35.526C94.4438 35.5494 94.0581 35.6196 93.7192 35.7367C93.3687 35.8537 93.094 36.0176 92.8954 36.2282C92.6967 36.4389 92.6441 36.6847 92.7376 36.9714H92.7318Z" fill="black"/>
<path d="M99.1067 30.2357L99.5625 30.1538L100.62 35.9942L100.164 36.0762L99.1067 30.2357Z" fill="black"/>
<path d="M104.897 30.2884L105.347 30.1421L105.423 31.5056L107.053 31.4179L107.077 31.8509L105.447 31.9387L105.569 34.1976C105.587 34.5019 105.669 34.7184 105.826 34.8413C105.978 34.9701 106.212 35.0228 106.516 35.0052C106.808 34.9876 107.088 34.9174 107.357 34.7828L107.381 35.2042C107.1 35.3446 106.779 35.4266 106.416 35.4441C106.031 35.4675 105.727 35.3797 105.493 35.1866C105.265 34.9935 105.137 34.695 105.113 34.3029L104.985 31.9621L104.255 32.0031L104.231 31.57L104.962 31.529L104.897 30.2884Z" fill="black"/>
<path d="M111.88 30.3001L112.341 30.2181L112.225 31.5817L113.849 31.7221L113.814 32.1493L112.19 32.0089L111.991 34.262C111.962 34.5663 112.02 34.7886 112.154 34.9349C112.289 35.0812 112.511 35.169 112.815 35.1983C113.107 35.2217 113.393 35.1866 113.68 35.093L113.644 35.5143C113.346 35.6138 113.019 35.6489 112.657 35.6138C112.271 35.5787 111.985 35.4499 111.781 35.2276C111.576 35.0052 111.494 34.695 111.529 34.2971L111.734 31.9621L111.003 31.8977L111.038 31.4705L111.769 31.5349L111.88 30.2942V30.3001Z" fill="black"/>
<path d="M118.471 33.431C118.681 33.1736 118.956 32.9863 119.307 32.8751C119.657 32.7639 120.008 32.7581 120.37 32.8575L120.265 33.3081C119.873 33.1853 119.505 33.197 119.166 33.3433C118.827 33.4896 118.564 33.7237 118.383 34.0455L117.852 36.3688L117.402 36.2635L118.272 32.4596L118.676 32.5532L118.477 33.431H118.471Z" fill="black"/>
<path d="M127.335 35.3329L127.767 35.5026L126.318 39.1251L125.927 38.9671L126.184 38.3175C125.962 38.458 125.705 38.5516 125.401 38.5984C125.097 38.6452 124.793 38.6101 124.489 38.4872C124.045 38.3117 123.747 38.0366 123.584 37.6621C123.426 37.2875 123.432 36.8779 123.613 36.4273L124.507 34.1918L124.939 34.3615L124.069 36.5443C123.923 36.913 123.905 37.229 124.016 37.4982C124.127 37.7674 124.355 37.9722 124.694 38.1068C124.986 38.2239 125.272 38.2473 125.565 38.1771C125.851 38.1068 126.114 37.9839 126.347 37.8084L127.341 35.3212L127.335 35.3329Z" fill="black"/>
<path d="M130.572 41.3606L130.169 41.1266L132.12 37.7499L132.524 37.984L130.572 41.3606ZM133.184 36.9891C133.137 37.071 133.073 37.1237 132.991 37.1413C132.915 37.1588 132.833 37.1413 132.763 37.1003C132.681 37.0535 132.629 36.995 132.605 36.9189C132.576 36.8428 132.594 36.7609 132.646 36.6731C132.693 36.5912 132.757 36.5444 132.839 36.5268C132.921 36.5092 132.997 36.5268 133.073 36.5678C133.149 36.6146 133.196 36.6731 133.219 36.7492C133.242 36.8253 133.231 36.9072 133.184 36.9891Z" fill="black"/>
<path d="M135.837 41.2846C136.053 40.9978 136.328 40.8749 136.661 40.91C136.994 40.9451 137.309 41.0797 137.619 41.3197C138.022 41.6298 138.314 41.9985 138.49 42.414L138.221 42.7593C138.069 42.3438 137.794 41.9751 137.391 41.6649C137.175 41.4952 136.953 41.3957 136.737 41.3548C136.52 41.3197 136.339 41.3899 136.211 41.5596C136.1 41.7059 136.076 41.8815 136.141 42.0804C136.205 42.2794 136.322 42.4901 136.48 42.7008C136.637 42.9114 136.795 43.1221 136.947 43.3386C137.099 43.5552 137.192 43.7834 137.228 44.0233C137.263 44.2633 137.204 44.4857 137.046 44.6963C136.824 44.9831 136.544 45.106 136.211 45.0592C135.878 45.0182 135.533 44.8602 135.182 44.5851C134.692 44.2048 134.376 43.801 134.224 43.3621L134.505 42.9992C134.662 43.4674 134.966 43.8829 135.422 44.234C136.006 44.6846 136.421 44.749 136.672 44.4213C136.783 44.275 136.807 44.0994 136.737 43.9004C136.667 43.7015 136.556 43.4967 136.392 43.286C136.228 43.0753 136.076 42.8646 135.924 42.6422C135.773 42.4257 135.685 42.1916 135.65 41.9517C135.615 41.7059 135.679 41.4835 135.837 41.2787V41.2846Z" fill="black"/>
<path d="M143.252 44.7549L143.655 45.0007L142.673 45.9487L143.807 47.125L143.497 47.4234L142.364 46.2472L140.739 47.8155C140.523 48.0262 140.412 48.231 140.418 48.43C140.418 48.629 140.529 48.8397 140.745 49.062C140.95 49.2727 141.189 49.4366 141.464 49.5536L141.16 49.8462C140.874 49.7233 140.599 49.5361 140.348 49.2727C140.079 48.9977 139.945 48.7051 139.945 48.4066C139.945 48.1081 140.079 47.8155 140.365 47.5405L142.048 45.9136L141.54 45.3869L141.849 45.0885L142.358 45.6151L143.252 44.7549Z" fill="black"/>
<path d="M146.723 57.8051L146.501 57.4071L149.527 55.71L149.183 55.0897L149.557 54.879L149.901 55.4994L150.38 55.2302C150.789 55.0019 151.14 54.9493 151.45 55.0663C151.754 55.1833 151.999 55.4057 152.18 55.7334C152.355 56.0436 152.461 56.3538 152.49 56.6581L152.116 56.8687C152.104 56.5878 152.017 56.3128 151.865 56.0319C151.549 55.4701 151.128 55.3355 150.591 55.634L150.123 55.8973L150.895 57.2725L150.521 57.4832L149.749 56.108L146.723 57.8051Z" fill="black"/>
<path d="M150.789 65.1729C150.573 65.2549 150.509 65.4012 150.591 65.6177C150.62 65.6996 150.673 65.7874 150.749 65.881L150.398 66.0098C150.299 65.8927 150.223 65.7699 150.176 65.6411C150.03 65.2549 150.141 64.974 150.503 64.7984C149.948 64.5702 149.557 64.1488 149.329 63.5285C149.2 63.1774 149.177 62.8438 149.27 62.5278C149.364 62.2118 149.586 61.9835 149.936 61.8548C150.351 61.6968 150.713 61.7436 151.023 61.9894C151.333 62.2352 151.567 62.5804 151.736 63.0252C151.882 63.4173 151.97 63.8211 152.005 64.2366L152.25 64.1488C152.572 64.0259 152.794 63.8269 152.911 63.5519C153.027 63.2769 153.016 62.955 152.881 62.5805C152.706 62.1123 152.461 61.7085 152.133 61.3632L152.56 61.2052C152.875 61.5797 153.115 62.0069 153.296 62.4751C153.477 62.9608 153.489 63.3939 153.325 63.7626C153.162 64.1313 152.84 64.4063 152.361 64.5877L150.801 65.1729H150.789ZM150.123 62.2878C149.884 62.3756 149.738 62.5336 149.679 62.756C149.621 62.9784 149.638 63.2183 149.732 63.4758C149.837 63.7567 149.995 63.9967 150.211 64.2015C150.427 64.4063 150.678 64.5468 150.971 64.6228L151.643 64.3712C151.602 63.9498 151.514 63.5636 151.391 63.2242C151.263 62.8789 151.087 62.6097 150.871 62.4224C150.655 62.2352 150.404 62.1884 150.123 62.2937V62.2878Z" fill="black"/>
<path d="M154.126 68.8481C154.476 68.7778 154.763 68.8656 154.991 69.1055C155.219 69.3455 155.37 69.6615 155.446 70.0419C155.546 70.5452 155.522 71.0075 155.382 71.4405L154.95 71.5283C155.113 71.1128 155.143 70.6564 155.043 70.1589C154.991 69.8897 154.891 69.6674 154.751 69.4976C154.611 69.3279 154.43 69.2636 154.219 69.3045C154.038 69.3396 153.91 69.4567 153.822 69.6498C153.74 69.8429 153.688 70.077 153.67 70.3403C153.653 70.6037 153.629 70.867 153.606 71.1304C153.577 71.3937 153.501 71.6278 153.366 71.8326C153.238 72.0375 153.045 72.1662 152.788 72.2189C152.431 72.2891 152.139 72.1955 151.917 71.9438C151.695 71.6922 151.537 71.3469 151.45 70.908C151.327 70.2994 151.356 69.7844 151.532 69.3572L151.976 69.2694C151.783 69.7259 151.742 70.2409 151.859 70.8027C151.999 71.5283 152.274 71.8502 152.677 71.7683C152.858 71.7332 152.986 71.6161 153.068 71.423C153.15 71.224 153.197 70.9958 153.214 70.7324C153.232 70.4691 153.255 70.2057 153.284 69.9424C153.314 69.6791 153.395 69.445 153.53 69.2401C153.664 69.0353 153.857 68.9066 154.114 68.8539L154.126 68.8481Z" fill="black"/>
<path d="M157.988 76.1689L158 76.6313L155.563 76.7073C155.768 76.8595 155.949 77.0585 156.101 77.3101C156.253 77.5617 156.335 77.8368 156.346 78.147C156.358 78.6093 156.23 78.9897 155.949 79.2998C155.669 79.6041 155.289 79.768 154.815 79.7855L152.414 79.8616L152.402 79.3993L154.745 79.3232C155.137 79.3115 155.435 79.1945 155.634 78.9721C155.832 78.7497 155.932 78.463 155.926 78.1177C155.914 77.8075 155.82 77.5383 155.639 77.2984C155.458 77.0643 155.242 76.8712 154.985 76.7307L152.315 76.8127L152.303 76.3504L157.982 76.1689H157.988Z" fill="black"/>
<path d="M152.087 84.6254L152.139 84.1631L156.013 84.5961L155.961 85.0585L152.087 84.6254ZM157.129 85.2633C157.03 85.2516 156.96 85.2165 156.913 85.1462C156.866 85.0819 156.849 85.0058 156.855 84.918C156.866 84.8244 156.901 84.7541 156.954 84.7015C157.012 84.6488 157.094 84.6254 157.194 84.6371C157.287 84.6488 157.357 84.6839 157.404 84.7541C157.451 84.8244 157.474 84.9004 157.462 84.9882C157.451 85.076 157.416 85.1462 157.351 85.1989C157.287 85.2516 157.211 85.275 157.118 85.2633H157.129Z" fill="black"/>
<path d="M151.765 89.3596C152.221 89.0612 152.753 88.9909 153.36 89.1489C153.968 89.3069 154.401 89.6288 154.652 90.1145C154.903 90.5944 154.961 91.1094 154.821 91.6478C154.681 92.192 154.383 92.6134 153.927 92.9119C153.471 93.2103 152.94 93.2805 152.332 93.1225C151.724 92.9645 151.292 92.6426 151.041 92.1569C150.789 91.6712 150.737 91.1621 150.877 90.612C151.017 90.0736 151.315 89.6522 151.771 89.3538L151.765 89.3596ZM151.426 91.9404C151.625 92.3091 151.964 92.549 152.443 92.6778C152.922 92.8007 153.337 92.7538 153.688 92.5315C154.044 92.3091 154.278 91.9814 154.389 91.5483C154.5 91.1153 154.459 90.7115 154.26 90.3428C154.062 89.9741 153.723 89.7283 153.244 89.6054C152.764 89.4825 152.35 89.5293 151.993 89.7576C151.637 89.9799 151.403 90.3135 151.292 90.7466C151.181 91.1796 151.222 91.5834 151.426 91.9521V91.9404Z" fill="black"/>
<path d="M151.789 98.1379C151.917 98.3661 151.993 98.6294 152.028 98.9396C152.057 99.2498 152.005 99.5482 151.87 99.8408C151.678 100.262 151.385 100.543 151 100.689C150.614 100.836 150.199 100.812 149.767 100.613L147.582 99.6067L147.774 99.1854L149.907 100.169C150.264 100.332 150.579 100.362 150.86 100.25C151.14 100.145 151.356 99.9286 151.502 99.6126C151.631 99.3317 151.666 99.0449 151.613 98.7523C151.555 98.4597 151.45 98.1964 151.286 97.9506L148.861 96.827L149.054 96.4056L152.595 98.0442L152.42 98.4188L151.789 98.1262V98.1379Z" fill="black"/>
<path d="M144.099 109.274C144.233 109.257 144.362 109.298 144.479 109.403C144.601 109.503 144.66 109.626 144.666 109.76C144.672 109.895 144.625 110.018 144.531 110.135C144.432 110.252 144.315 110.316 144.187 110.334C144.052 110.351 143.924 110.31 143.801 110.205C143.678 110.1 143.614 109.983 143.608 109.848C143.608 109.713 143.655 109.59 143.748 109.473C143.842 109.362 143.959 109.298 144.093 109.28L144.099 109.274Z" fill="black"/>
<path d="M132.506 117.257C132.378 117.07 132.214 117.04 132.027 117.175C131.957 117.222 131.887 117.298 131.811 117.391L131.601 117.081C131.688 116.952 131.788 116.853 131.899 116.771C132.237 116.537 132.535 116.572 132.793 116.882C132.874 116.291 133.19 115.805 133.733 115.431C134.043 115.22 134.359 115.115 134.692 115.127C135.025 115.138 135.293 115.296 135.504 115.606C135.755 115.975 135.802 116.332 135.644 116.695C135.486 117.058 135.206 117.368 134.814 117.637C134.47 117.877 134.101 118.059 133.71 118.193L133.856 118.41C134.055 118.696 134.3 118.86 134.592 118.907C134.884 118.954 135.2 118.866 135.521 118.638C135.93 118.357 136.263 118.012 136.515 117.614L136.772 117.988C136.485 118.386 136.135 118.726 135.72 119.012C135.293 119.311 134.879 119.422 134.481 119.358C134.084 119.293 133.739 119.048 133.447 118.62L132.5 117.251L132.506 117.257ZM135.136 115.899C134.99 115.688 134.803 115.583 134.575 115.583C134.341 115.583 134.119 115.659 133.891 115.811C133.646 115.981 133.453 116.198 133.307 116.455C133.166 116.713 133.091 116.993 133.085 117.292L133.494 117.883C133.897 117.737 134.242 117.561 134.54 117.356C134.843 117.146 135.06 116.912 135.188 116.654C135.317 116.397 135.299 116.145 135.13 115.899H135.136Z" fill="black"/>
<path d="M130.905 124.162L130.49 124.367L127.838 119.059L128.252 118.848L130.905 124.156V124.162Z" fill="black"/>
<path d="M125.325 125.742L124.933 126.006L124.484 124.718L122.941 125.262L122.795 124.853L124.337 124.309L123.589 122.173C123.49 121.886 123.35 121.704 123.163 121.622C122.982 121.541 122.742 121.552 122.45 121.658C122.175 121.757 121.924 121.903 121.702 122.108L121.562 121.71C121.79 121.5 122.076 121.33 122.421 121.213C122.783 121.084 123.105 121.084 123.379 121.207C123.654 121.33 123.858 121.576 123.987 121.95L124.764 124.162L125.453 123.922L125.594 124.332L124.904 124.572L125.313 125.748L125.325 125.742Z" fill="black"/>
<path d="M118.623 127.679L118.202 127.89L117.939 126.55L116.338 126.866L116.256 126.444L117.857 126.128L117.419 123.911C117.361 123.612 117.244 123.413 117.074 123.308C116.905 123.202 116.671 123.179 116.367 123.243C116.081 123.302 115.812 123.413 115.567 123.583L115.485 123.167C115.742 122.986 116.052 122.863 116.403 122.793C116.782 122.717 117.098 122.758 117.349 122.921C117.606 123.08 117.77 123.355 117.846 123.741L118.302 126.041L119.02 125.9L119.102 126.322L118.383 126.462L118.623 127.685V127.679Z" fill="black"/>
<path d="M111.43 126.515C111.301 126.819 111.085 127.077 110.781 127.287C110.477 127.498 110.139 127.597 109.765 127.597L109.735 127.135C110.15 127.147 110.495 127.03 110.781 126.796C111.068 126.562 111.255 126.263 111.342 125.906L111.208 123.524L111.669 123.495L111.897 127.393L111.483 127.416L111.43 126.515Z" fill="black"/>
<path d="M102.396 127.176L101.935 127.129L102.309 123.243L102.729 123.284L102.665 123.981C102.835 123.782 103.063 123.624 103.337 123.489C103.612 123.36 103.916 123.308 104.243 123.343C104.716 123.39 105.084 123.571 105.341 123.881C105.598 124.191 105.704 124.589 105.657 125.069L105.423 127.469L104.962 127.422L105.189 125.081C105.23 124.689 105.154 124.379 104.967 124.15C104.78 123.922 104.512 123.794 104.149 123.758C103.84 123.729 103.553 123.788 103.296 123.94C103.039 124.092 102.823 124.279 102.648 124.513L102.391 127.176H102.396Z" fill="black"/>
<path d="M96.3078 127.229C96.3312 127.135 96.3779 127.065 96.448 127.03C96.5182 126.995 96.5941 126.983 96.6818 127.001C96.7694 127.024 96.8395 127.065 96.8863 127.129C96.933 127.194 96.9447 127.276 96.9155 127.375C96.8921 127.463 96.8454 127.527 96.7694 127.568C96.6935 127.609 96.6175 127.621 96.5299 127.597C96.4422 127.574 96.3838 127.533 96.337 127.463C96.2903 127.393 96.2786 127.317 96.302 127.223L96.3078 127.229ZM97.5816 122.301L98.0315 122.412L97.1083 126.205L96.6584 126.093L97.5816 122.301Z" fill="black"/>
<path d="M92.5622 123.864C92.4337 124.197 92.2058 124.396 91.8786 124.455C91.5514 124.519 91.2066 124.478 90.8444 124.338C90.3711 124.15 89.9913 123.881 89.6991 123.536L89.8569 123.126C90.1198 123.483 90.4879 123.758 90.9612 123.94C91.2183 124.039 91.4579 124.074 91.6799 124.051C91.902 124.022 92.0481 123.911 92.1299 123.706C92.1941 123.536 92.1708 123.36 92.0481 123.185C91.9253 123.009 91.7617 122.845 91.5455 122.687C91.3352 122.529 91.1248 122.371 90.9203 122.208C90.7158 122.044 90.558 121.851 90.4587 121.628C90.3535 121.406 90.3535 121.178 90.447 120.932C90.5814 120.592 90.8093 120.399 91.1482 120.347C91.4813 120.294 91.8552 120.347 92.2701 120.51C92.8427 120.733 93.2634 121.037 93.5322 121.412L93.3686 121.833C93.0881 121.423 92.6791 121.119 92.1415 120.908C91.4579 120.639 91.0372 120.698 90.8911 121.084C90.8268 121.254 90.8502 121.429 90.9729 121.599C91.0956 121.774 91.2592 121.938 91.4754 122.091C91.6858 122.249 91.8961 122.407 92.1006 122.576C92.3051 122.746 92.4571 122.939 92.5622 123.161C92.6616 123.384 92.6674 123.618 92.5739 123.858L92.5622 123.864Z" fill="black"/>
<path d="M84.4637 122.617L84.008 122.494L84.6858 121.306L83.2717 120.493L83.4879 120.118L84.902 120.932L86.0239 118.971C86.1758 118.708 86.2225 118.48 86.1583 118.293C86.094 118.105 85.9362 117.93 85.6674 117.778C85.4103 117.631 85.1357 117.543 84.8377 117.508L85.048 117.14C85.3577 117.175 85.6733 117.28 85.9888 117.462C86.3219 117.655 86.5322 117.895 86.6199 118.181C86.7075 118.468 86.6549 118.784 86.4563 119.129L85.2935 121.16L85.9304 121.523L85.7142 121.897L85.0773 121.535L84.4579 122.611L84.4637 122.617Z" fill="black"/>
<path d="M77.5045 111.048L77.8317 111.364L75.436 113.874L75.9502 114.36L75.6522 114.67L75.1439 114.184L74.7641 114.582C74.4427 114.922 74.1213 115.074 73.7941 115.056C73.4669 115.033 73.1689 114.892 72.9001 114.635C72.643 114.389 72.4502 114.126 72.3275 113.845L72.6255 113.535C72.7189 113.798 72.8826 114.038 73.1163 114.26C73.5837 114.705 74.0278 114.705 74.4485 114.26L74.8166 113.874L73.6772 112.786L73.9752 112.476L75.1146 113.564L77.5103 111.053L77.5045 111.048Z" fill="black"/>
<path d="M71.5152 105.108C71.6963 104.973 71.7197 104.809 71.5795 104.622C71.5269 104.552 71.4509 104.481 71.3516 104.417L71.6496 104.195C71.7782 104.282 71.8892 104.376 71.9651 104.487C72.2105 104.815 72.1872 105.119 71.8892 105.389C72.4852 105.453 72.9818 105.746 73.3733 106.278C73.5954 106.577 73.7064 106.893 73.7122 107.226C73.7122 107.56 73.5662 107.835 73.2623 108.057C72.9059 108.326 72.5495 108.385 72.1813 108.239C71.8191 108.092 71.4918 107.829 71.2055 107.443C70.9543 107.109 70.7556 106.746 70.6095 106.36L70.3992 106.518C70.1187 106.729 69.9668 106.98 69.9317 107.279C69.8967 107.577 69.996 107.882 70.2356 108.198C70.5336 108.595 70.8842 108.917 71.2932 109.151L70.9309 109.426C70.5219 109.157 70.1713 108.818 69.8674 108.414C69.5578 107.999 69.4292 107.589 69.4759 107.185C69.5227 106.781 69.7623 106.43 70.1713 106.12L71.5035 105.119L71.5152 105.108ZM72.9643 107.688C73.1688 107.536 73.2682 107.343 73.2565 107.109C73.2506 106.875 73.163 106.653 73.0052 106.436C72.8241 106.196 72.602 106.009 72.3391 105.88C72.0762 105.746 71.7898 105.687 71.4918 105.693L70.9192 106.12C71.077 106.512 71.2698 106.857 71.486 107.15C71.708 107.443 71.9476 107.653 72.2105 107.776C72.4735 107.899 72.7247 107.87 72.9643 107.688Z" fill="black"/>
<path d="M67.2907 102.533C66.9752 102.697 66.6714 102.697 66.3851 102.533C66.0987 102.363 65.865 102.106 65.6839 101.76C65.4501 101.31 65.3391 100.859 65.3508 100.403L65.7423 100.198C65.7014 100.643 65.8007 101.087 66.0403 101.538C66.1689 101.784 66.3208 101.965 66.5078 102.094C66.6889 102.217 66.8817 102.228 67.0687 102.129C67.2323 102.041 67.3258 101.895 67.3492 101.684C67.3725 101.474 67.355 101.239 67.2966 100.982C67.2382 100.724 67.1856 100.467 67.1388 100.204C67.0921 99.9461 67.1038 99.6945 67.168 99.4604C67.2382 99.2263 67.3842 99.0507 67.6121 98.9279C67.9335 98.7581 68.2373 98.764 68.5236 98.9454C68.81 99.1268 69.0554 99.4136 69.2599 99.8057C69.5462 100.356 69.6631 100.859 69.6163 101.316L69.2131 101.526C69.2657 101.035 69.1606 100.531 68.8976 100.022C68.5587 99.3668 68.2023 99.1385 67.84 99.3258C67.6764 99.4077 67.5829 99.5599 67.5595 99.7706C67.5362 99.9812 67.5595 100.215 67.6121 100.473C67.6705 100.73 67.7231 100.988 67.764 101.251C67.8108 101.514 67.7933 101.76 67.7231 101.994C67.653 102.228 67.5011 102.41 67.2732 102.527L67.2907 102.533Z" fill="black"/>
<path d="M61.5235 96.5812L61.3832 96.1423L63.703 95.3874C63.4634 95.2996 63.2355 95.1591 63.0193 94.9602C62.8031 94.7612 62.6454 94.5154 62.5519 94.2228C62.4116 93.7839 62.4292 93.3801 62.6161 93.0056C62.7973 92.631 63.1187 92.3735 63.5686 92.2272L65.8533 91.484L65.9993 91.9229L63.7673 92.6486C63.3991 92.7715 63.142 92.9646 63.0076 93.2396C62.8732 93.5147 62.8616 93.8131 62.9667 94.1409C63.0602 94.4335 63.2297 94.6676 63.4693 94.8431C63.7088 95.0187 63.9718 95.1416 64.2522 95.206L66.794 94.375L66.9342 94.8139L61.5293 96.5753L61.5235 96.5812Z" fill="black"/>
<path d="M59.8114 87.604C59.9049 87.5864 59.9867 87.604 60.051 87.6508C60.1152 87.7035 60.1562 87.7679 60.1678 87.8556C60.1854 87.9434 60.1678 88.0253 60.1328 88.0956C60.0919 88.1658 60.0218 88.2068 59.9224 88.2243C59.8348 88.2419 59.753 88.2243 59.6887 88.1716C59.6244 88.119 59.5835 88.0488 59.566 87.9668C59.5485 87.879 59.566 87.803 59.6127 87.7327C59.6595 87.6625 59.7296 87.6216 59.8173 87.6099L59.8114 87.604ZM64.8307 86.8081L64.9066 87.2646L61.0677 87.9317L60.9917 87.4752L64.8307 86.8081Z" fill="black"/>
<path d="M63.8257 82.1734C63.4693 82.5889 62.9785 82.8054 62.3533 82.8229C61.728 82.8405 61.2255 82.6532 60.8457 82.2611C60.4718 81.869 60.2731 81.3892 60.2556 80.8332C60.238 80.2714 60.4075 79.7798 60.7639 79.3643C61.1204 78.9488 61.6112 78.7323 62.2364 78.7148C62.8616 78.6972 63.3641 78.8845 63.7439 79.2766C64.1237 79.6687 64.3166 80.1485 64.3341 80.7103C64.3516 81.2663 64.1822 81.752 63.8257 82.1675V82.1734ZM63.4342 79.5984C63.1362 79.3 62.7448 79.1595 62.2539 79.1771C61.7631 79.1888 61.3775 79.3526 61.097 79.6628C60.8165 79.973 60.688 80.3533 60.6996 80.804C60.7113 81.2546 60.8691 81.6291 61.1613 81.9276C61.4534 82.226 61.8507 82.3665 62.3416 82.3548C62.8324 82.3431 63.218 82.1792 63.4985 81.8632C63.779 81.5472 63.9075 81.1668 63.8959 80.7162C63.8842 80.2656 63.7322 79.891 63.4342 79.5984Z" fill="black"/>
<path d="M61.354 73.752C61.167 73.5706 61.0151 73.3365 60.8982 73.0498C60.7814 72.763 60.7463 72.4587 60.7931 72.1368C60.8632 71.6804 61.0619 71.3292 61.3891 71.0776C61.7221 70.8259 62.1195 70.7323 62.5928 70.8025L64.9709 71.1595L64.9008 71.616L62.5811 71.2707C62.1954 71.2122 61.8799 71.2707 61.6403 71.458C61.4008 71.6394 61.2547 71.9027 61.2021 72.248C61.1553 72.5523 61.2021 72.8391 61.3365 73.1024C61.4709 73.3658 61.652 73.594 61.8741 73.7813L64.5152 74.1734L64.445 74.6298L60.5886 74.0563L60.647 73.6467L61.3365 73.752H61.354Z" fill="black"/>
</svg>
